<mxfile host="Electron" agent="Mozilla/5.0 (Windows NT 10.0; Win64; x64) AppleWebKit/537.36 (KHTML, like Gecko) draw.io/28.1.2 Chrome/138.0.7204.243 Electron/37.4.0 Safari/537.36" version="28.1.2" pages="12">
  <diagram name="SD001" id="2YBvvXClWsGukQMizWep">
    <mxGraphModel dx="2714" dy="1022" grid="1" gridSize="10" guides="1" tooltips="1" connect="1" arrows="1" fold="1" page="1" pageScale="1" pageWidth="850" pageHeight="1100" math="0" shadow="0">
      <root>
        <mxCell id="0" />
        <mxCell id="1" parent="0" />
        <mxCell id="2Un15NCKekVf6Sp-akFZ-5" value="" style="shape=umlLifeline;perimeter=lifelinePerimeter;whiteSpace=wrap;html=1;container=1;dropTarget=0;collapsible=0;recursiveResize=0;outlineConnect=0;portConstraint=eastwest;newEdgeStyle={&quot;curved&quot;:0,&quot;rounded&quot;:0};participant=umlBoundary;" parent="1" vertex="1">
          <mxGeometry x="-410" y="220" width="50" height="570" as="geometry" />
        </mxCell>
        <mxCell id="2Un15NCKekVf6Sp-akFZ-20" value="" style="html=1;points=[[0,0,0,0,5],[0,1,0,0,-5],[1,0,0,0,5],[1,1,0,0,-5]];perimeter=orthogonalPerimeter;outlineConnect=0;targetShapes=umlLifeline;portConstraint=eastwest;newEdgeStyle={&quot;curved&quot;:0,&quot;rounded&quot;:0};" parent="2Un15NCKekVf6Sp-akFZ-5" vertex="1">
          <mxGeometry x="20" y="90" width="10" height="80" as="geometry" />
        </mxCell>
        <mxCell id="2Un15NCKekVf6Sp-akFZ-26" value="" style="html=1;points=[[0,0,0,0,5],[0,1,0,0,-5],[1,0,0,0,5],[1,1,0,0,-5]];perimeter=orthogonalPerimeter;outlineConnect=0;targetShapes=umlLifeline;portConstraint=eastwest;newEdgeStyle={&quot;curved&quot;:0,&quot;rounded&quot;:0};" parent="2Un15NCKekVf6Sp-akFZ-5" vertex="1">
          <mxGeometry x="20" y="220" width="10" height="80" as="geometry" />
        </mxCell>
        <mxCell id="2Un15NCKekVf6Sp-akFZ-37" value="" style="html=1;points=[[0,0,0,0,5],[0,1,0,0,-5],[1,0,0,0,5],[1,1,0,0,-5]];perimeter=orthogonalPerimeter;outlineConnect=0;targetShapes=umlLifeline;portConstraint=eastwest;newEdgeStyle={&quot;curved&quot;:0,&quot;rounded&quot;:0};" parent="2Un15NCKekVf6Sp-akFZ-5" vertex="1">
          <mxGeometry x="20" y="400" width="10" height="130" as="geometry" />
        </mxCell>
        <mxCell id="2Un15NCKekVf6Sp-akFZ-6" value="" style="shape=umlLifeline;perimeter=lifelinePerimeter;whiteSpace=wrap;html=1;container=1;dropTarget=0;collapsible=0;recursiveResize=0;outlineConnect=0;portConstraint=eastwest;newEdgeStyle={&quot;curved&quot;:0,&quot;rounded&quot;:0};participant=umlEntity;" parent="1" vertex="1">
          <mxGeometry x="130" y="220" width="40" height="570" as="geometry" />
        </mxCell>
        <mxCell id="2Un15NCKekVf6Sp-akFZ-32" value="" style="html=1;points=[[0,0,0,0,5],[0,1,0,0,-5],[1,0,0,0,5],[1,1,0,0,-5]];perimeter=orthogonalPerimeter;outlineConnect=0;targetShapes=umlLifeline;portConstraint=eastwest;newEdgeStyle={&quot;curved&quot;:0,&quot;rounded&quot;:0};" parent="2Un15NCKekVf6Sp-akFZ-6" vertex="1">
          <mxGeometry x="15" y="340" width="10" height="130" as="geometry" />
        </mxCell>
        <mxCell id="2Un15NCKekVf6Sp-akFZ-7" value="" style="shape=umlLifeline;perimeter=lifelinePerimeter;whiteSpace=wrap;html=1;container=1;dropTarget=0;collapsible=0;recursiveResize=0;outlineConnect=0;portConstraint=eastwest;newEdgeStyle={&quot;curved&quot;:0,&quot;rounded&quot;:0};participant=umlControl;" parent="1" vertex="1">
          <mxGeometry x="-140" y="220" width="40" height="580" as="geometry" />
        </mxCell>
        <mxCell id="2Un15NCKekVf6Sp-akFZ-28" value="" style="html=1;points=[[0,0,0,0,5],[0,1,0,0,-5],[1,0,0,0,5],[1,1,0,0,-5]];perimeter=orthogonalPerimeter;outlineConnect=0;targetShapes=umlLifeline;portConstraint=eastwest;newEdgeStyle={&quot;curved&quot;:0,&quot;rounded&quot;:0};" parent="2Un15NCKekVf6Sp-akFZ-7" vertex="1">
          <mxGeometry x="15" y="280" width="10" height="240" as="geometry" />
        </mxCell>
        <mxCell id="2Un15NCKekVf6Sp-akFZ-8" value="Người dùng" style="shape=umlActor;verticalLabelPosition=bottom;verticalAlign=top;html=1;" parent="1" vertex="1">
          <mxGeometry x="-670" y="200" width="30" height="60" as="geometry" />
        </mxCell>
        <mxCell id="2Un15NCKekVf6Sp-akFZ-11" value="" style="html=1;points=[[0,0,0,0,5],[0,1,0,0,-5],[1,0,0,0,5],[1,1,0,0,-5]];perimeter=orthogonalPerimeter;outlineConnect=0;targetShapes=umlLifeline;portConstraint=eastwest;newEdgeStyle={&quot;curved&quot;:0,&quot;rounded&quot;:0};" parent="1" vertex="1">
          <mxGeometry x="-660" y="290" width="10" height="510" as="geometry" />
        </mxCell>
        <mxCell id="2Un15NCKekVf6Sp-akFZ-14" value="Giao diện hệ thống" style="text;html=1;align=center;verticalAlign=middle;resizable=0;points=[];autosize=1;strokeColor=none;fillColor=none;" parent="1" vertex="1">
          <mxGeometry x="-450" y="260" width="120" height="30" as="geometry" />
        </mxCell>
        <mxCell id="2Un15NCKekVf6Sp-akFZ-15" value="Đăng ký" style="text;html=1;align=center;verticalAlign=middle;resizable=0;points=[];autosize=1;strokeColor=none;fillColor=none;" parent="1" vertex="1">
          <mxGeometry x="-155" y="260" width="70" height="30" as="geometry" />
        </mxCell>
        <mxCell id="2Un15NCKekVf6Sp-akFZ-16" value="Cơ sở dữ liệu" style="text;html=1;align=center;verticalAlign=middle;resizable=0;points=[];autosize=1;strokeColor=none;fillColor=none;" parent="1" vertex="1">
          <mxGeometry x="100" y="260" width="100" height="30" as="geometry" />
        </mxCell>
        <mxCell id="2Un15NCKekVf6Sp-akFZ-21" value="1. Truy cập chức năng &quot;Đăng ký&quot;" style="html=1;verticalAlign=bottom;startArrow=none;endArrow=block;startSize=8;curved=0;rounded=0;entryX=0;entryY=0;entryDx=0;entryDy=5;startFill=0;" parent="1" source="2Un15NCKekVf6Sp-akFZ-11" target="2Un15NCKekVf6Sp-akFZ-20" edge="1">
          <mxGeometry relative="1" as="geometry">
            <mxPoint x="-460" y="315" as="sourcePoint" />
          </mxGeometry>
        </mxCell>
        <mxCell id="2Un15NCKekVf6Sp-akFZ-22" style="rounded=0;orthogonalLoop=1;jettySize=auto;html=1;exitX=0;exitY=1;exitDx=0;exitDy=-5;exitPerimeter=0;dashed=1;endArrow=open;endFill=0;" parent="1" source="2Un15NCKekVf6Sp-akFZ-20" target="2Un15NCKekVf6Sp-akFZ-11" edge="1">
          <mxGeometry relative="1" as="geometry" />
        </mxCell>
        <mxCell id="2Un15NCKekVf6Sp-akFZ-23" value="2. Hiển thị form đăng ký" style="edgeLabel;html=1;align=center;verticalAlign=middle;resizable=0;points=[];" parent="2Un15NCKekVf6Sp-akFZ-22" vertex="1" connectable="0">
          <mxGeometry x="-0.0338" y="-3" relative="1" as="geometry">
            <mxPoint y="-12" as="offset" />
          </mxGeometry>
        </mxCell>
        <mxCell id="2Un15NCKekVf6Sp-akFZ-27" value="3. Nhập thông tin và nhấn nút &quot;Đăng ký&quot;" style="html=1;verticalAlign=bottom;startArrow=none;endArrow=block;startSize=8;curved=0;rounded=0;entryX=0;entryY=0;entryDx=0;entryDy=5;startFill=0;" parent="1" source="2Un15NCKekVf6Sp-akFZ-11" target="2Un15NCKekVf6Sp-akFZ-26" edge="1">
          <mxGeometry relative="1" as="geometry">
            <mxPoint x="-460" y="445" as="sourcePoint" />
          </mxGeometry>
        </mxCell>
        <mxCell id="2Un15NCKekVf6Sp-akFZ-29" value="4. Kiểm tra thông tin hợp lệ" style="html=1;verticalAlign=bottom;startArrow=none;endArrow=block;startSize=8;curved=0;rounded=0;entryX=0;entryY=0;entryDx=0;entryDy=5;startFill=0;" parent="1" source="2Un15NCKekVf6Sp-akFZ-5" target="2Un15NCKekVf6Sp-akFZ-28" edge="1">
          <mxGeometry relative="1" as="geometry">
            <mxPoint x="-200" y="505" as="sourcePoint" />
          </mxGeometry>
        </mxCell>
        <mxCell id="2Un15NCKekVf6Sp-akFZ-33" value="5. Truy vấn cơ sở dữ liệu để kiểm tra" style="html=1;verticalAlign=bottom;startArrow=none;endArrow=block;startSize=8;curved=0;rounded=0;entryX=0;entryY=0;entryDx=0;entryDy=5;startFill=0;" parent="1" source="2Un15NCKekVf6Sp-akFZ-7" target="2Un15NCKekVf6Sp-akFZ-32" edge="1">
          <mxGeometry relative="1" as="geometry">
            <mxPoint x="-60" y="495" as="sourcePoint" />
          </mxGeometry>
        </mxCell>
        <mxCell id="2Un15NCKekVf6Sp-akFZ-35" value="6.1 Thông tin hơp lệ" style="html=1;verticalAlign=bottom;endArrow=open;dashed=1;endSize=8;curved=0;rounded=0;" parent="1" edge="1">
          <mxGeometry relative="1" as="geometry">
            <mxPoint x="150" y="620" as="sourcePoint" />
            <mxPoint x="-110" y="620" as="targetPoint" />
          </mxGeometry>
        </mxCell>
        <mxCell id="2Un15NCKekVf6Sp-akFZ-36" value="6.2 Thông tin không hợp lệ" style="html=1;verticalAlign=bottom;endArrow=open;dashed=1;endSize=8;curved=0;rounded=0;" parent="1" edge="1">
          <mxGeometry relative="1" as="geometry">
            <mxPoint x="150" y="670" as="sourcePoint" />
            <mxPoint x="-110" y="670" as="targetPoint" />
          </mxGeometry>
        </mxCell>
        <mxCell id="2Un15NCKekVf6Sp-akFZ-38" value="7.1 Thông tin hợp lệ" style="html=1;verticalAlign=bottom;endArrow=open;dashed=1;endSize=8;curved=0;rounded=0;" parent="1" edge="1">
          <mxGeometry relative="1" as="geometry">
            <mxPoint x="-120.5" y="660" as="sourcePoint" />
            <mxPoint x="-380" y="660" as="targetPoint" />
          </mxGeometry>
        </mxCell>
        <mxCell id="2Un15NCKekVf6Sp-akFZ-39" value="7.2 Thông tin không hợp lệ" style="html=1;verticalAlign=bottom;endArrow=open;dashed=1;endSize=8;curved=0;rounded=0;" parent="1" source="2Un15NCKekVf6Sp-akFZ-7" target="2Un15NCKekVf6Sp-akFZ-37" edge="1">
          <mxGeometry relative="1" as="geometry">
            <mxPoint x="-290" y="720" as="sourcePoint" />
            <mxPoint x="-370" y="720" as="targetPoint" />
            <Array as="points">
              <mxPoint x="-340" y="720" />
            </Array>
          </mxGeometry>
        </mxCell>
        <mxCell id="2Un15NCKekVf6Sp-akFZ-40" value="8.1 Thông báo đăng ký thành công" style="html=1;verticalAlign=bottom;endArrow=open;dashed=1;endSize=8;curved=0;rounded=0;" parent="1" source="2Un15NCKekVf6Sp-akFZ-37" target="2Un15NCKekVf6Sp-akFZ-11" edge="1">
          <mxGeometry relative="1" as="geometry">
            <mxPoint x="-500" y="660" as="sourcePoint" />
            <mxPoint x="-580" y="660" as="targetPoint" />
          </mxGeometry>
        </mxCell>
        <mxCell id="2Un15NCKekVf6Sp-akFZ-41" value="8.2 Thông báo lỗi và yêu cầu nhập lại" style="html=1;verticalAlign=bottom;endArrow=open;dashed=1;endSize=8;curved=0;rounded=0;" parent="1" edge="1">
          <mxGeometry relative="1" as="geometry">
            <mxPoint x="-390" y="730" as="sourcePoint" />
            <mxPoint x="-650" y="730" as="targetPoint" />
          </mxGeometry>
        </mxCell>
      </root>
    </mxGraphModel>
  </diagram>
  <diagram id="syy2pmtvmTjBSbyAHTLq" name="SD002">
    <mxGraphModel dx="1025" dy="562" grid="1" gridSize="10" guides="1" tooltips="1" connect="1" arrows="1" fold="1" page="1" pageScale="1" pageWidth="850" pageHeight="1100" math="0" shadow="0">
      <root>
        <mxCell id="0" />
        <mxCell id="1" parent="0" />
        <mxCell id="NzgDc6mhOd81DwDLJLWn-1" value="" style="shape=umlLifeline;perimeter=lifelinePerimeter;whiteSpace=wrap;html=1;container=1;dropTarget=0;collapsible=0;recursiveResize=0;outlineConnect=0;portConstraint=eastwest;newEdgeStyle={&quot;curved&quot;:0,&quot;rounded&quot;:0};participant=umlBoundary;" parent="1" vertex="1">
          <mxGeometry x="590" y="250" width="50" height="570" as="geometry" />
        </mxCell>
        <mxCell id="NzgDc6mhOd81DwDLJLWn-2" value="" style="html=1;points=[[0,0,0,0,5],[0,1,0,0,-5],[1,0,0,0,5],[1,1,0,0,-5]];perimeter=orthogonalPerimeter;outlineConnect=0;targetShapes=umlLifeline;portConstraint=eastwest;newEdgeStyle={&quot;curved&quot;:0,&quot;rounded&quot;:0};" parent="NzgDc6mhOd81DwDLJLWn-1" vertex="1">
          <mxGeometry x="20" y="90" width="10" height="80" as="geometry" />
        </mxCell>
        <mxCell id="NzgDc6mhOd81DwDLJLWn-3" value="" style="html=1;points=[[0,0,0,0,5],[0,1,0,0,-5],[1,0,0,0,5],[1,1,0,0,-5]];perimeter=orthogonalPerimeter;outlineConnect=0;targetShapes=umlLifeline;portConstraint=eastwest;newEdgeStyle={&quot;curved&quot;:0,&quot;rounded&quot;:0};" parent="NzgDc6mhOd81DwDLJLWn-1" vertex="1">
          <mxGeometry x="20" y="220" width="10" height="80" as="geometry" />
        </mxCell>
        <mxCell id="NzgDc6mhOd81DwDLJLWn-4" value="" style="html=1;points=[[0,0,0,0,5],[0,1,0,0,-5],[1,0,0,0,5],[1,1,0,0,-5]];perimeter=orthogonalPerimeter;outlineConnect=0;targetShapes=umlLifeline;portConstraint=eastwest;newEdgeStyle={&quot;curved&quot;:0,&quot;rounded&quot;:0};" parent="NzgDc6mhOd81DwDLJLWn-1" vertex="1">
          <mxGeometry x="20" y="400" width="10" height="130" as="geometry" />
        </mxCell>
        <mxCell id="NzgDc6mhOd81DwDLJLWn-5" value="" style="shape=umlLifeline;perimeter=lifelinePerimeter;whiteSpace=wrap;html=1;container=1;dropTarget=0;collapsible=0;recursiveResize=0;outlineConnect=0;portConstraint=eastwest;newEdgeStyle={&quot;curved&quot;:0,&quot;rounded&quot;:0};participant=umlEntity;" parent="1" vertex="1">
          <mxGeometry x="1130" y="250" width="40" height="570" as="geometry" />
        </mxCell>
        <mxCell id="NzgDc6mhOd81DwDLJLWn-6" value="" style="html=1;points=[[0,0,0,0,5],[0,1,0,0,-5],[1,0,0,0,5],[1,1,0,0,-5]];perimeter=orthogonalPerimeter;outlineConnect=0;targetShapes=umlLifeline;portConstraint=eastwest;newEdgeStyle={&quot;curved&quot;:0,&quot;rounded&quot;:0};" parent="NzgDc6mhOd81DwDLJLWn-5" vertex="1">
          <mxGeometry x="15" y="340" width="10" height="130" as="geometry" />
        </mxCell>
        <mxCell id="NzgDc6mhOd81DwDLJLWn-7" value="" style="shape=umlLifeline;perimeter=lifelinePerimeter;whiteSpace=wrap;html=1;container=1;dropTarget=0;collapsible=0;recursiveResize=0;outlineConnect=0;portConstraint=eastwest;newEdgeStyle={&quot;curved&quot;:0,&quot;rounded&quot;:0};participant=umlControl;" parent="1" vertex="1">
          <mxGeometry x="860" y="250" width="40" height="580" as="geometry" />
        </mxCell>
        <mxCell id="NzgDc6mhOd81DwDLJLWn-8" value="" style="html=1;points=[[0,0,0,0,5],[0,1,0,0,-5],[1,0,0,0,5],[1,1,0,0,-5]];perimeter=orthogonalPerimeter;outlineConnect=0;targetShapes=umlLifeline;portConstraint=eastwest;newEdgeStyle={&quot;curved&quot;:0,&quot;rounded&quot;:0};" parent="NzgDc6mhOd81DwDLJLWn-7" vertex="1">
          <mxGeometry x="15" y="280" width="10" height="240" as="geometry" />
        </mxCell>
        <mxCell id="NzgDc6mhOd81DwDLJLWn-9" value="Người dùng" style="shape=umlActor;verticalLabelPosition=bottom;verticalAlign=top;html=1;" parent="1" vertex="1">
          <mxGeometry x="330" y="230" width="30" height="60" as="geometry" />
        </mxCell>
        <mxCell id="NzgDc6mhOd81DwDLJLWn-10" value="" style="html=1;points=[[0,0,0,0,5],[0,1,0,0,-5],[1,0,0,0,5],[1,1,0,0,-5]];perimeter=orthogonalPerimeter;outlineConnect=0;targetShapes=umlLifeline;portConstraint=eastwest;newEdgeStyle={&quot;curved&quot;:0,&quot;rounded&quot;:0};" parent="1" vertex="1">
          <mxGeometry x="340" y="320" width="10" height="510" as="geometry" />
        </mxCell>
        <mxCell id="NzgDc6mhOd81DwDLJLWn-11" value="Giao diện hệ thống" style="text;html=1;align=center;verticalAlign=middle;resizable=0;points=[];autosize=1;strokeColor=none;fillColor=none;" parent="1" vertex="1">
          <mxGeometry x="550" y="290" width="120" height="30" as="geometry" />
        </mxCell>
        <mxCell id="NzgDc6mhOd81DwDLJLWn-12" value="Đăng nhập" style="text;html=1;align=center;verticalAlign=middle;resizable=0;points=[];autosize=1;strokeColor=none;fillColor=none;" parent="1" vertex="1">
          <mxGeometry x="840" y="290" width="80" height="30" as="geometry" />
        </mxCell>
        <mxCell id="NzgDc6mhOd81DwDLJLWn-13" value="Cơ sở dữ liệu" style="text;html=1;align=center;verticalAlign=middle;resizable=0;points=[];autosize=1;strokeColor=none;fillColor=none;" parent="1" vertex="1">
          <mxGeometry x="1100" y="290" width="100" height="30" as="geometry" />
        </mxCell>
        <mxCell id="NzgDc6mhOd81DwDLJLWn-14" value="1. Truy cập chức năng &quot;Đăng nhập&quot;" style="html=1;verticalAlign=bottom;startArrow=none;endArrow=block;startSize=8;curved=0;rounded=0;entryX=0;entryY=0;entryDx=0;entryDy=5;startFill=0;" parent="1" source="NzgDc6mhOd81DwDLJLWn-10" target="NzgDc6mhOd81DwDLJLWn-2" edge="1">
          <mxGeometry relative="1" as="geometry">
            <mxPoint x="540" y="345" as="sourcePoint" />
          </mxGeometry>
        </mxCell>
        <mxCell id="NzgDc6mhOd81DwDLJLWn-15" style="rounded=0;orthogonalLoop=1;jettySize=auto;html=1;exitX=0;exitY=1;exitDx=0;exitDy=-5;exitPerimeter=0;dashed=1;endArrow=open;endFill=0;" parent="1" source="NzgDc6mhOd81DwDLJLWn-2" target="NzgDc6mhOd81DwDLJLWn-10" edge="1">
          <mxGeometry relative="1" as="geometry" />
        </mxCell>
        <mxCell id="NzgDc6mhOd81DwDLJLWn-16" value="2. Hiển thị form đăng nhập" style="edgeLabel;html=1;align=center;verticalAlign=middle;resizable=0;points=[];" parent="NzgDc6mhOd81DwDLJLWn-15" vertex="1" connectable="0">
          <mxGeometry x="-0.0338" y="-3" relative="1" as="geometry">
            <mxPoint y="-12" as="offset" />
          </mxGeometry>
        </mxCell>
        <mxCell id="NzgDc6mhOd81DwDLJLWn-17" value="3. Nhập thông tin và nhấn nút &quot;Đăng nhập&quot;" style="html=1;verticalAlign=bottom;startArrow=none;endArrow=block;startSize=8;curved=0;rounded=0;entryX=0;entryY=0;entryDx=0;entryDy=5;startFill=0;" parent="1" source="NzgDc6mhOd81DwDLJLWn-10" target="NzgDc6mhOd81DwDLJLWn-3" edge="1">
          <mxGeometry relative="1" as="geometry">
            <mxPoint x="540" y="475" as="sourcePoint" />
          </mxGeometry>
        </mxCell>
        <mxCell id="NzgDc6mhOd81DwDLJLWn-18" value="4. Kiểm tra thông tin tài khoản" style="html=1;verticalAlign=bottom;startArrow=none;endArrow=block;startSize=8;curved=0;rounded=0;entryX=0;entryY=0;entryDx=0;entryDy=5;startFill=0;" parent="1" source="NzgDc6mhOd81DwDLJLWn-1" target="NzgDc6mhOd81DwDLJLWn-8" edge="1">
          <mxGeometry relative="1" as="geometry">
            <mxPoint x="800" y="535" as="sourcePoint" />
          </mxGeometry>
        </mxCell>
        <mxCell id="NzgDc6mhOd81DwDLJLWn-19" value="5. Truy vấn cơ sở dữ liệu để kiểm tra" style="html=1;verticalAlign=bottom;startArrow=none;endArrow=block;startSize=8;curved=0;rounded=0;entryX=0;entryY=0;entryDx=0;entryDy=5;startFill=0;" parent="1" source="NzgDc6mhOd81DwDLJLWn-7" target="NzgDc6mhOd81DwDLJLWn-6" edge="1">
          <mxGeometry relative="1" as="geometry">
            <mxPoint x="940" y="525" as="sourcePoint" />
          </mxGeometry>
        </mxCell>
        <mxCell id="NzgDc6mhOd81DwDLJLWn-20" value="6.1 Thông tin hơp lệ" style="html=1;verticalAlign=bottom;endArrow=open;dashed=1;endSize=8;curved=0;rounded=0;" parent="1" edge="1">
          <mxGeometry relative="1" as="geometry">
            <mxPoint x="1150" y="650" as="sourcePoint" />
            <mxPoint x="890" y="650" as="targetPoint" />
          </mxGeometry>
        </mxCell>
        <mxCell id="NzgDc6mhOd81DwDLJLWn-21" value="6.2 Thông tin không hợp lệ" style="html=1;verticalAlign=bottom;endArrow=open;dashed=1;endSize=8;curved=0;rounded=0;" parent="1" edge="1">
          <mxGeometry relative="1" as="geometry">
            <mxPoint x="1150" y="700" as="sourcePoint" />
            <mxPoint x="890" y="700" as="targetPoint" />
          </mxGeometry>
        </mxCell>
        <mxCell id="NzgDc6mhOd81DwDLJLWn-22" value="7.1 Thông tin hợp lệ" style="html=1;verticalAlign=bottom;endArrow=open;dashed=1;endSize=8;curved=0;rounded=0;" parent="1" edge="1">
          <mxGeometry relative="1" as="geometry">
            <mxPoint x="879.5" y="690" as="sourcePoint" />
            <mxPoint x="620" y="690" as="targetPoint" />
          </mxGeometry>
        </mxCell>
        <mxCell id="NzgDc6mhOd81DwDLJLWn-23" value="7.2 Thông tin không hợp lệ" style="html=1;verticalAlign=bottom;endArrow=open;dashed=1;endSize=8;curved=0;rounded=0;" parent="1" source="NzgDc6mhOd81DwDLJLWn-7" target="NzgDc6mhOd81DwDLJLWn-4" edge="1">
          <mxGeometry relative="1" as="geometry">
            <mxPoint x="710" y="750" as="sourcePoint" />
            <mxPoint x="630" y="750" as="targetPoint" />
            <Array as="points">
              <mxPoint x="660" y="750" />
            </Array>
          </mxGeometry>
        </mxCell>
        <mxCell id="NzgDc6mhOd81DwDLJLWn-24" value="8.1 Thông báo đăng nhập thành công" style="html=1;verticalAlign=bottom;endArrow=open;dashed=1;endSize=8;curved=0;rounded=0;" parent="1" source="NzgDc6mhOd81DwDLJLWn-4" target="NzgDc6mhOd81DwDLJLWn-10" edge="1">
          <mxGeometry relative="1" as="geometry">
            <mxPoint x="500" y="690" as="sourcePoint" />
            <mxPoint x="420" y="690" as="targetPoint" />
          </mxGeometry>
        </mxCell>
        <mxCell id="NzgDc6mhOd81DwDLJLWn-25" value="8.2 Thông báo lỗi và yêu cầu nhập lại" style="html=1;verticalAlign=bottom;endArrow=open;dashed=1;endSize=8;curved=0;rounded=0;" parent="1" edge="1">
          <mxGeometry relative="1" as="geometry">
            <mxPoint x="610" y="760" as="sourcePoint" />
            <mxPoint x="350" y="760" as="targetPoint" />
          </mxGeometry>
        </mxCell>
      </root>
    </mxGraphModel>
  </diagram>
  <diagram id="IqC9gFh3db8NDZP6PbQS" name="SD003">
    <mxGraphModel dx="1025" dy="562" grid="1" gridSize="10" guides="1" tooltips="1" connect="1" arrows="1" fold="1" page="1" pageScale="1" pageWidth="850" pageHeight="1100" math="0" shadow="0">
      <root>
        <mxCell id="0" />
        <mxCell id="1" parent="0" />
        <mxCell id="hDHyOOShOKE3GLIDKh-J-1" value="" style="shape=umlLifeline;perimeter=lifelinePerimeter;whiteSpace=wrap;html=1;container=1;dropTarget=0;collapsible=0;recursiveResize=0;outlineConnect=0;portConstraint=eastwest;newEdgeStyle={&quot;curved&quot;:0,&quot;rounded&quot;:0};participant=umlBoundary;" parent="1" vertex="1">
          <mxGeometry x="380" y="370" width="50" height="230" as="geometry" />
        </mxCell>
        <mxCell id="hDHyOOShOKE3GLIDKh-J-2" value="" style="html=1;points=[[0,0,0,0,5],[0,1,0,0,-5],[1,0,0,0,5],[1,1,0,0,-5]];perimeter=orthogonalPerimeter;outlineConnect=0;targetShapes=umlLifeline;portConstraint=eastwest;newEdgeStyle={&quot;curved&quot;:0,&quot;rounded&quot;:0};" parent="hDHyOOShOKE3GLIDKh-J-1" vertex="1">
          <mxGeometry x="20" y="90" width="10" height="100" as="geometry" />
        </mxCell>
        <mxCell id="hDHyOOShOKE3GLIDKh-J-7" value="" style="shape=umlLifeline;perimeter=lifelinePerimeter;whiteSpace=wrap;html=1;container=1;dropTarget=0;collapsible=0;recursiveResize=0;outlineConnect=0;portConstraint=eastwest;newEdgeStyle={&quot;curved&quot;:0,&quot;rounded&quot;:0};participant=umlControl;" parent="1" vertex="1">
          <mxGeometry x="650" y="370" width="40" height="230" as="geometry" />
        </mxCell>
        <mxCell id="hDHyOOShOKE3GLIDKh-J-8" value="" style="html=1;points=[[0,0,0,0,5],[0,1,0,0,-5],[1,0,0,0,5],[1,1,0,0,-5]];perimeter=orthogonalPerimeter;outlineConnect=0;targetShapes=umlLifeline;portConstraint=eastwest;newEdgeStyle={&quot;curved&quot;:0,&quot;rounded&quot;:0};" parent="hDHyOOShOKE3GLIDKh-J-7" vertex="1">
          <mxGeometry x="15" y="90" width="10" height="120" as="geometry" />
        </mxCell>
        <mxCell id="hDHyOOShOKE3GLIDKh-J-26" value="" style="html=1;points=[[0,0,0,0,5],[0,1,0,0,-5],[1,0,0,0,5],[1,1,0,0,-5]];perimeter=orthogonalPerimeter;outlineConnect=0;targetShapes=umlLifeline;portConstraint=eastwest;newEdgeStyle={&quot;curved&quot;:0,&quot;rounded&quot;:0};" parent="hDHyOOShOKE3GLIDKh-J-7" vertex="1">
          <mxGeometry x="25" y="140" width="10" height="40" as="geometry" />
        </mxCell>
        <mxCell id="hDHyOOShOKE3GLIDKh-J-27" value="Xóa phiên làm việc" style="html=1;align=left;spacingLeft=2;endArrow=block;rounded=0;edgeStyle=orthogonalEdgeStyle;curved=0;rounded=0;" parent="hDHyOOShOKE3GLIDKh-J-7" target="hDHyOOShOKE3GLIDKh-J-26" edge="1">
          <mxGeometry relative="1" as="geometry">
            <mxPoint x="30" y="110" as="sourcePoint" />
            <Array as="points">
              <mxPoint x="60" y="140" />
            </Array>
          </mxGeometry>
        </mxCell>
        <mxCell id="hDHyOOShOKE3GLIDKh-J-9" value="Người dùng" style="shape=umlActor;verticalLabelPosition=bottom;verticalAlign=top;html=1;" parent="1" vertex="1">
          <mxGeometry x="120" y="350" width="30" height="60" as="geometry" />
        </mxCell>
        <mxCell id="hDHyOOShOKE3GLIDKh-J-10" value="" style="html=1;points=[[0,0,0,0,5],[0,1,0,0,-5],[1,0,0,0,5],[1,1,0,0,-5]];perimeter=orthogonalPerimeter;outlineConnect=0;targetShapes=umlLifeline;portConstraint=eastwest;newEdgeStyle={&quot;curved&quot;:0,&quot;rounded&quot;:0};" parent="1" vertex="1">
          <mxGeometry x="130" y="440" width="10" height="150" as="geometry" />
        </mxCell>
        <mxCell id="hDHyOOShOKE3GLIDKh-J-11" value="Giao diện hệ thống" style="text;html=1;align=center;verticalAlign=middle;resizable=0;points=[];autosize=1;strokeColor=none;fillColor=none;" parent="1" vertex="1">
          <mxGeometry x="345" y="410" width="120" height="30" as="geometry" />
        </mxCell>
        <mxCell id="hDHyOOShOKE3GLIDKh-J-12" value="Đăng xuất" style="text;html=1;align=center;verticalAlign=middle;resizable=0;points=[];autosize=1;strokeColor=none;fillColor=none;" parent="1" vertex="1">
          <mxGeometry x="630" y="410" width="80" height="30" as="geometry" />
        </mxCell>
        <mxCell id="hDHyOOShOKE3GLIDKh-J-14" value="1. Truy cập chức năng &quot;Đăng xuất&quot;" style="html=1;verticalAlign=bottom;startArrow=none;endArrow=block;startSize=8;curved=0;rounded=0;entryX=0;entryY=0;entryDx=0;entryDy=5;startFill=0;" parent="1" source="hDHyOOShOKE3GLIDKh-J-10" target="hDHyOOShOKE3GLIDKh-J-2" edge="1">
          <mxGeometry relative="1" as="geometry">
            <mxPoint x="330" y="465" as="sourcePoint" />
          </mxGeometry>
        </mxCell>
        <mxCell id="hDHyOOShOKE3GLIDKh-J-18" value="2. Gửi yêu cầu đăng xuất" style="html=1;verticalAlign=bottom;startArrow=none;endArrow=block;startSize=8;curved=0;rounded=0;startFill=0;" parent="1" source="hDHyOOShOKE3GLIDKh-J-1" target="hDHyOOShOKE3GLIDKh-J-8" edge="1">
          <mxGeometry relative="1" as="geometry">
            <mxPoint x="590" y="655" as="sourcePoint" />
            <Array as="points">
              <mxPoint x="520" y="500" />
            </Array>
          </mxGeometry>
        </mxCell>
        <mxCell id="hDHyOOShOKE3GLIDKh-J-22" value="3. Xác nhận xóa phiên" style="html=1;verticalAlign=bottom;endArrow=open;dashed=1;endSize=8;curved=0;rounded=0;" parent="1" edge="1">
          <mxGeometry relative="1" as="geometry">
            <mxPoint x="669.5" y="540" as="sourcePoint" />
            <mxPoint x="410" y="540" as="targetPoint" />
          </mxGeometry>
        </mxCell>
        <mxCell id="hDHyOOShOKE3GLIDKh-J-24" value="4. Chuyển về giao diện trang khi chưa đăng nhập" style="html=1;verticalAlign=bottom;endArrow=open;dashed=1;endSize=8;curved=0;rounded=0;" parent="1" source="hDHyOOShOKE3GLIDKh-J-1" target="hDHyOOShOKE3GLIDKh-J-10" edge="1">
          <mxGeometry relative="1" as="geometry">
            <mxPoint x="290" y="810" as="sourcePoint" />
            <mxPoint x="210" y="810" as="targetPoint" />
            <Array as="points">
              <mxPoint x="270" y="530" />
            </Array>
          </mxGeometry>
        </mxCell>
      </root>
    </mxGraphModel>
  </diagram>
  <diagram id="Yh7x-2QW_FcSYRdaUrQJ" name="SD004">
    <mxGraphModel dx="1025" dy="562" grid="1" gridSize="10" guides="1" tooltips="1" connect="1" arrows="1" fold="1" page="1" pageScale="1" pageWidth="850" pageHeight="1100" math="0" shadow="0">
      <root>
        <mxCell id="0" />
        <mxCell id="1" parent="0" />
        <mxCell id="xt_BmGJGgszj_gNMnL_e-26" value="" style="shape=umlLifeline;perimeter=lifelinePerimeter;whiteSpace=wrap;html=1;container=1;dropTarget=0;collapsible=0;recursiveResize=0;outlineConnect=0;portConstraint=eastwest;newEdgeStyle={&quot;curved&quot;:0,&quot;rounded&quot;:0};participant=umlBoundary;" parent="1" vertex="1">
          <mxGeometry x="540" y="150" width="50" height="570" as="geometry" />
        </mxCell>
        <mxCell id="xt_BmGJGgszj_gNMnL_e-27" value="" style="html=1;points=[[0,0,0,0,5],[0,1,0,0,-5],[1,0,0,0,5],[1,1,0,0,-5]];perimeter=orthogonalPerimeter;outlineConnect=0;targetShapes=umlLifeline;portConstraint=eastwest;newEdgeStyle={&quot;curved&quot;:0,&quot;rounded&quot;:0};" parent="xt_BmGJGgszj_gNMnL_e-26" vertex="1">
          <mxGeometry x="20" y="90" width="10" height="80" as="geometry" />
        </mxCell>
        <mxCell id="xt_BmGJGgszj_gNMnL_e-29" value="" style="html=1;points=[[0,0,0,0,5],[0,1,0,0,-5],[1,0,0,0,5],[1,1,0,0,-5]];perimeter=orthogonalPerimeter;outlineConnect=0;targetShapes=umlLifeline;portConstraint=eastwest;newEdgeStyle={&quot;curved&quot;:0,&quot;rounded&quot;:0};" parent="xt_BmGJGgszj_gNMnL_e-26" vertex="1">
          <mxGeometry x="20" y="320" width="10" height="130" as="geometry" />
        </mxCell>
        <mxCell id="xt_BmGJGgszj_gNMnL_e-32" value="" style="shape=umlLifeline;perimeter=lifelinePerimeter;whiteSpace=wrap;html=1;container=1;dropTarget=0;collapsible=0;recursiveResize=0;outlineConnect=0;portConstraint=eastwest;newEdgeStyle={&quot;curved&quot;:0,&quot;rounded&quot;:0};participant=umlControl;" parent="1" vertex="1">
          <mxGeometry x="810" y="150" width="40" height="580" as="geometry" />
        </mxCell>
        <mxCell id="xt_BmGJGgszj_gNMnL_e-33" value="" style="html=1;points=[[0,0,0,0,5],[0,1,0,0,-5],[1,0,0,0,5],[1,1,0,0,-5]];perimeter=orthogonalPerimeter;outlineConnect=0;targetShapes=umlLifeline;portConstraint=eastwest;newEdgeStyle={&quot;curved&quot;:0,&quot;rounded&quot;:0};" parent="xt_BmGJGgszj_gNMnL_e-32" vertex="1">
          <mxGeometry x="15" y="270" width="10" height="240" as="geometry" />
        </mxCell>
        <mxCell id="xt_BmGJGgszj_gNMnL_e-56" value="" style="html=1;points=[[0,0,0,0,5],[0,1,0,0,-5],[1,0,0,0,5],[1,1,0,0,-5]];perimeter=orthogonalPerimeter;outlineConnect=0;targetShapes=umlLifeline;portConstraint=eastwest;newEdgeStyle={&quot;curved&quot;:0,&quot;rounded&quot;:0};" parent="xt_BmGJGgszj_gNMnL_e-32" vertex="1">
          <mxGeometry x="15" y="100" width="10" height="130" as="geometry" />
        </mxCell>
        <mxCell id="xt_BmGJGgszj_gNMnL_e-34" value="Người dùng" style="shape=umlActor;verticalLabelPosition=bottom;verticalAlign=top;html=1;" parent="1" vertex="1">
          <mxGeometry x="170" y="130" width="30" height="60" as="geometry" />
        </mxCell>
        <mxCell id="xt_BmGJGgszj_gNMnL_e-35" value="" style="html=1;points=[[0,0,0,0,5],[0,1,0,0,-5],[1,0,0,0,5],[1,1,0,0,-5]];perimeter=orthogonalPerimeter;outlineConnect=0;targetShapes=umlLifeline;portConstraint=eastwest;newEdgeStyle={&quot;curved&quot;:0,&quot;rounded&quot;:0};" parent="1" vertex="1">
          <mxGeometry x="180" y="230" width="10" height="510" as="geometry" />
        </mxCell>
        <mxCell id="xt_BmGJGgszj_gNMnL_e-36" value="Giao diện hệ thống" style="text;html=1;align=center;verticalAlign=middle;resizable=0;points=[];autosize=1;strokeColor=none;fillColor=none;" parent="1" vertex="1">
          <mxGeometry x="500" y="190" width="120" height="30" as="geometry" />
        </mxCell>
        <mxCell id="xt_BmGJGgszj_gNMnL_e-37" value="Gợi ý thuốc" style="text;html=1;align=center;verticalAlign=middle;resizable=0;points=[];autosize=1;strokeColor=none;fillColor=none;" parent="1" vertex="1">
          <mxGeometry x="785" y="190" width="90" height="30" as="geometry" />
        </mxCell>
        <mxCell id="xt_BmGJGgszj_gNMnL_e-38" value="Cơ sở dữ liệu" style="text;html=1;align=center;verticalAlign=middle;resizable=0;points=[];autosize=1;strokeColor=none;fillColor=none;" parent="1" vertex="1">
          <mxGeometry x="1380" y="190" width="100" height="30" as="geometry" />
        </mxCell>
        <mxCell id="xt_BmGJGgszj_gNMnL_e-39" value="1. Nhập mô tả triệu chứng vào thanh nhập trên trang chủ" style="html=1;verticalAlign=bottom;startArrow=none;endArrow=block;startSize=8;curved=0;rounded=0;entryX=0;entryY=0;entryDx=0;entryDy=5;startFill=0;" parent="1" source="xt_BmGJGgszj_gNMnL_e-35" target="xt_BmGJGgszj_gNMnL_e-27" edge="1">
          <mxGeometry relative="1" as="geometry">
            <mxPoint x="490" y="245" as="sourcePoint" />
          </mxGeometry>
        </mxCell>
        <mxCell id="xt_BmGJGgszj_gNMnL_e-54" value="Mô hình gợi ý" style="text;html=1;align=center;verticalAlign=middle;resizable=0;points=[];autosize=1;strokeColor=none;fillColor=none;" parent="1" vertex="1">
          <mxGeometry x="1030" y="190" width="100" height="30" as="geometry" />
        </mxCell>
        <mxCell id="xt_BmGJGgszj_gNMnL_e-55" value="2. Gửi thông tin mô tả triệu chứng&amp;nbsp;" style="html=1;verticalAlign=bottom;endArrow=block;curved=0;rounded=0;" parent="1" edge="1">
          <mxGeometry width="80" relative="1" as="geometry">
            <mxPoint x="564.1666666666667" y="270" as="sourcePoint" />
            <mxPoint x="829.5" y="270" as="targetPoint" />
          </mxGeometry>
        </mxCell>
        <mxCell id="xt_BmGJGgszj_gNMnL_e-58" value="3. Gửi dữ liệu sau khi xử lý" style="html=1;verticalAlign=bottom;endArrow=block;curved=0;rounded=0;" parent="1" edge="1">
          <mxGeometry x="0.1302" y="10" width="80" relative="1" as="geometry">
            <mxPoint x="839.9966666666668" y="299.33000000000004" as="sourcePoint" />
            <mxPoint x="1070" y="300" as="targetPoint" />
            <mxPoint as="offset" />
          </mxGeometry>
        </mxCell>
        <mxCell id="xt_BmGJGgszj_gNMnL_e-64" value="5.Trả về danh sách thuốc phù hợp&amp;nbsp;" style="html=1;verticalAlign=bottom;endArrow=open;dashed=1;endSize=8;curved=0;rounded=0;" parent="1" edge="1">
          <mxGeometry relative="1" as="geometry">
            <mxPoint x="1420" y="409.99999999999994" as="sourcePoint" />
            <mxPoint x="1090" y="410" as="targetPoint" />
          </mxGeometry>
        </mxCell>
        <mxCell id="xt_BmGJGgszj_gNMnL_e-65" value="7. Gửi kết quả phân tích" style="html=1;verticalAlign=bottom;endArrow=open;dashed=1;endSize=8;curved=0;rounded=0;" parent="1" edge="1">
          <mxGeometry relative="1" as="geometry">
            <mxPoint x="825.33" y="500" as="sourcePoint" />
            <mxPoint x="580" y="500" as="targetPoint" />
          </mxGeometry>
        </mxCell>
        <mxCell id="xt_BmGJGgszj_gNMnL_e-66" value="8. Hiển thị danh sách kết quả bên dưới thanh nhập&amp;nbsp;" style="html=1;verticalAlign=bottom;endArrow=open;dashed=1;endSize=8;curved=0;rounded=0;entryX=1;entryY=0.686;entryDx=0;entryDy=0;entryPerimeter=0;" parent="1" edge="1">
          <mxGeometry x="-0.0147" y="-10" relative="1" as="geometry">
            <mxPoint x="564.5" y="540.0000000000001" as="sourcePoint" />
            <mxPoint x="190" y="540.0000000000001" as="targetPoint" />
            <mxPoint as="offset" />
          </mxGeometry>
        </mxCell>
        <mxCell id="xt_BmGJGgszj_gNMnL_e-67" value="" style="shape=umlLifeline;perimeter=lifelinePerimeter;whiteSpace=wrap;html=1;container=1;dropTarget=0;collapsible=0;recursiveResize=0;outlineConnect=0;portConstraint=eastwest;newEdgeStyle={&quot;curved&quot;:0,&quot;rounded&quot;:0};participant=umlControl;" parent="1" vertex="1">
          <mxGeometry x="1060" y="150" width="40" height="580" as="geometry" />
        </mxCell>
        <mxCell id="xt_BmGJGgszj_gNMnL_e-68" value="" style="html=1;points=[[0,0,0,0,5],[0,1,0,0,-5],[1,0,0,0,5],[1,1,0,0,-5]];perimeter=orthogonalPerimeter;outlineConnect=0;targetShapes=umlLifeline;portConstraint=eastwest;newEdgeStyle={&quot;curved&quot;:0,&quot;rounded&quot;:0};" parent="xt_BmGJGgszj_gNMnL_e-67" vertex="1">
          <mxGeometry x="15" y="130" width="10" height="170" as="geometry" />
        </mxCell>
        <mxCell id="xt_BmGJGgszj_gNMnL_e-69" value="" style="shape=umlLifeline;perimeter=lifelinePerimeter;whiteSpace=wrap;html=1;container=1;dropTarget=0;collapsible=0;recursiveResize=0;outlineConnect=0;portConstraint=eastwest;newEdgeStyle={&quot;curved&quot;:0,&quot;rounded&quot;:0};participant=umlEntity;" parent="1" vertex="1">
          <mxGeometry x="1410" y="150" width="40" height="580" as="geometry" />
        </mxCell>
        <mxCell id="xt_BmGJGgszj_gNMnL_e-71" value="" style="html=1;points=[[0,0,0,0,5],[0,1,0,0,-5],[1,0,0,0,5],[1,1,0,0,-5]];perimeter=orthogonalPerimeter;outlineConnect=0;targetShapes=umlLifeline;portConstraint=eastwest;newEdgeStyle={&quot;curved&quot;:0,&quot;rounded&quot;:0};" parent="xt_BmGJGgszj_gNMnL_e-69" vertex="1">
          <mxGeometry x="15" y="150" width="10" height="190" as="geometry" />
        </mxCell>
        <mxCell id="xt_BmGJGgszj_gNMnL_e-70" value="4. Gửi yêu cầu để tìm các thuốc phù hợp với kết quả phân tích" style="html=1;verticalAlign=bottom;endArrow=block;curved=0;rounded=0;" parent="1" target="xt_BmGJGgszj_gNMnL_e-69" edge="1">
          <mxGeometry width="80" relative="1" as="geometry">
            <mxPoint x="1078.5" y="340" as="sourcePoint" />
            <mxPoint x="1289.5" y="340" as="targetPoint" />
          </mxGeometry>
        </mxCell>
        <mxCell id="xt_BmGJGgszj_gNMnL_e-72" value="6. Gửi kết quả là danh sách thuốc phù hợp" style="html=1;verticalAlign=bottom;endArrow=open;dashed=1;endSize=8;curved=0;rounded=0;" parent="1" edge="1">
          <mxGeometry relative="1" as="geometry">
            <mxPoint x="1070" y="439" as="sourcePoint" />
            <mxPoint x="840" y="439" as="targetPoint" />
          </mxGeometry>
        </mxCell>
      </root>
    </mxGraphModel>
  </diagram>
  <diagram id="Vb0UK8tpxlsUPy5uB852" name="SD005">
    <mxGraphModel dx="1025" dy="562" grid="1" gridSize="10" guides="1" tooltips="1" connect="1" arrows="1" fold="1" page="1" pageScale="1" pageWidth="850" pageHeight="1100" math="0" shadow="0">
      <root>
        <mxCell id="0" />
        <mxCell id="1" parent="0" />
        <mxCell id="oIE3M8GX71ygRRzZbENh-1" value="" style="shape=umlLifeline;perimeter=lifelinePerimeter;whiteSpace=wrap;html=1;container=1;dropTarget=0;collapsible=0;recursiveResize=0;outlineConnect=0;portConstraint=eastwest;newEdgeStyle={&quot;curved&quot;:0,&quot;rounded&quot;:0};participant=umlBoundary;" parent="1" vertex="1">
          <mxGeometry x="650" y="350" width="50" height="410" as="geometry" />
        </mxCell>
        <mxCell id="oIE3M8GX71ygRRzZbENh-2" value="" style="html=1;points=[[0,0,0,0,5],[0,1,0,0,-5],[1,0,0,0,5],[1,1,0,0,-5]];perimeter=orthogonalPerimeter;outlineConnect=0;targetShapes=umlLifeline;portConstraint=eastwest;newEdgeStyle={&quot;curved&quot;:0,&quot;rounded&quot;:0};" parent="oIE3M8GX71ygRRzZbENh-1" vertex="1">
          <mxGeometry x="20" y="90" width="10" height="80" as="geometry" />
        </mxCell>
        <mxCell id="oIE3M8GX71ygRRzZbENh-3" value="" style="html=1;points=[[0,0,0,0,5],[0,1,0,0,-5],[1,0,0,0,5],[1,1,0,0,-5]];perimeter=orthogonalPerimeter;outlineConnect=0;targetShapes=umlLifeline;portConstraint=eastwest;newEdgeStyle={&quot;curved&quot;:0,&quot;rounded&quot;:0};" parent="oIE3M8GX71ygRRzZbENh-1" vertex="1">
          <mxGeometry x="20" y="220" width="10" height="80" as="geometry" />
        </mxCell>
        <mxCell id="oIE3M8GX71ygRRzZbENh-5" value="" style="shape=umlLifeline;perimeter=lifelinePerimeter;whiteSpace=wrap;html=1;container=1;dropTarget=0;collapsible=0;recursiveResize=0;outlineConnect=0;portConstraint=eastwest;newEdgeStyle={&quot;curved&quot;:0,&quot;rounded&quot;:0};participant=umlEntity;" parent="1" vertex="1">
          <mxGeometry x="1190" y="350" width="40" height="410" as="geometry" />
        </mxCell>
        <mxCell id="oIE3M8GX71ygRRzZbENh-6" value="" style="html=1;points=[[0,0,0,0,5],[0,1,0,0,-5],[1,0,0,0,5],[1,1,0,0,-5]];perimeter=orthogonalPerimeter;outlineConnect=0;targetShapes=umlLifeline;portConstraint=eastwest;newEdgeStyle={&quot;curved&quot;:0,&quot;rounded&quot;:0};" parent="oIE3M8GX71ygRRzZbENh-5" vertex="1">
          <mxGeometry x="15" y="135" width="10" height="130" as="geometry" />
        </mxCell>
        <mxCell id="oIE3M8GX71ygRRzZbENh-7" value="" style="shape=umlLifeline;perimeter=lifelinePerimeter;whiteSpace=wrap;html=1;container=1;dropTarget=0;collapsible=0;recursiveResize=0;outlineConnect=0;portConstraint=eastwest;newEdgeStyle={&quot;curved&quot;:0,&quot;rounded&quot;:0};participant=umlControl;" parent="1" vertex="1">
          <mxGeometry x="920" y="350" width="40" height="410" as="geometry" />
        </mxCell>
        <mxCell id="oIE3M8GX71ygRRzZbENh-8" value="" style="html=1;points=[[0,0,0,0,5],[0,1,0,0,-5],[1,0,0,0,5],[1,1,0,0,-5]];perimeter=orthogonalPerimeter;outlineConnect=0;targetShapes=umlLifeline;portConstraint=eastwest;newEdgeStyle={&quot;curved&quot;:0,&quot;rounded&quot;:0};" parent="oIE3M8GX71ygRRzZbENh-7" vertex="1">
          <mxGeometry x="15" y="110" width="10" height="160" as="geometry" />
        </mxCell>
        <mxCell id="oIE3M8GX71ygRRzZbENh-9" value="Người dùng" style="shape=umlActor;verticalLabelPosition=bottom;verticalAlign=top;html=1;" parent="1" vertex="1">
          <mxGeometry x="210" y="330" width="30" height="60" as="geometry" />
        </mxCell>
        <mxCell id="oIE3M8GX71ygRRzZbENh-10" value="" style="html=1;points=[[0,0,0,0,5],[0,1,0,0,-5],[1,0,0,0,5],[1,1,0,0,-5]];perimeter=orthogonalPerimeter;outlineConnect=0;targetShapes=umlLifeline;portConstraint=eastwest;newEdgeStyle={&quot;curved&quot;:0,&quot;rounded&quot;:0};" parent="1" vertex="1">
          <mxGeometry x="220" y="420" width="10" height="330" as="geometry" />
        </mxCell>
        <mxCell id="oIE3M8GX71ygRRzZbENh-11" value="Giao diện hệ thống" style="text;html=1;align=center;verticalAlign=middle;resizable=0;points=[];autosize=1;strokeColor=none;fillColor=none;" parent="1" vertex="1">
          <mxGeometry x="615" y="390" width="120" height="30" as="geometry" />
        </mxCell>
        <mxCell id="oIE3M8GX71ygRRzZbENh-12" value="Xem thông tin thuốc" style="text;html=1;align=center;verticalAlign=middle;resizable=0;points=[];autosize=1;strokeColor=none;fillColor=none;" parent="1" vertex="1">
          <mxGeometry x="875" y="390" width="130" height="30" as="geometry" />
        </mxCell>
        <mxCell id="oIE3M8GX71ygRRzZbENh-13" value="Cơ sở dữ liệu" style="text;html=1;align=center;verticalAlign=middle;resizable=0;points=[];autosize=1;strokeColor=none;fillColor=none;" parent="1" vertex="1">
          <mxGeometry x="1160" y="390" width="100" height="30" as="geometry" />
        </mxCell>
        <mxCell id="oIE3M8GX71ygRRzZbENh-14" value="1. Chọn &quot;Xem chi tiết&quot; từ 1 thuốc trong danh sách kết quả" style="html=1;verticalAlign=bottom;startArrow=none;endArrow=block;startSize=8;curved=0;rounded=0;entryX=0;entryY=0;entryDx=0;entryDy=5;startFill=0;" parent="1" source="oIE3M8GX71ygRRzZbENh-10" target="oIE3M8GX71ygRRzZbENh-2" edge="1">
          <mxGeometry relative="1" as="geometry">
            <mxPoint x="600" y="445" as="sourcePoint" />
          </mxGeometry>
        </mxCell>
        <mxCell id="oIE3M8GX71ygRRzZbENh-15" style="rounded=0;orthogonalLoop=1;jettySize=auto;html=1;exitX=0;exitY=1;exitDx=0;exitDy=-5;exitPerimeter=0;dashed=1;endArrow=open;endFill=0;" parent="1" source="oIE3M8GX71ygRRzZbENh-2" target="oIE3M8GX71ygRRzZbENh-10" edge="1">
          <mxGeometry relative="1" as="geometry" />
        </mxCell>
        <mxCell id="oIE3M8GX71ygRRzZbENh-16" value="2. Hiển thị form đăng nhập" style="edgeLabel;html=1;align=center;verticalAlign=middle;resizable=0;points=[];" parent="oIE3M8GX71ygRRzZbENh-15" vertex="1" connectable="0">
          <mxGeometry x="-0.0338" y="-3" relative="1" as="geometry">
            <mxPoint y="-12" as="offset" />
          </mxGeometry>
        </mxCell>
        <mxCell id="oIE3M8GX71ygRRzZbENh-18" value="2. Gửi yêu cầu xem chi tiết thuốc" style="html=1;verticalAlign=bottom;startArrow=none;endArrow=block;startSize=8;curved=0;rounded=0;startFill=0;" parent="1" edge="1">
          <mxGeometry relative="1" as="geometry">
            <mxPoint x="679.9966666666668" y="470" as="sourcePoint" />
            <mxPoint x="930" y="470" as="targetPoint" />
          </mxGeometry>
        </mxCell>
        <mxCell id="oIE3M8GX71ygRRzZbENh-19" value="3. Truy vấn để lấy thông tin" style="html=1;verticalAlign=bottom;startArrow=none;endArrow=block;startSize=8;curved=0;rounded=0;entryX=0;entryY=0;entryDx=0;entryDy=5;startFill=0;" parent="1" target="oIE3M8GX71ygRRzZbENh-6" edge="1">
          <mxGeometry relative="1" as="geometry">
            <mxPoint x="950" y="490" as="sourcePoint" />
          </mxGeometry>
        </mxCell>
        <mxCell id="oIE3M8GX71ygRRzZbENh-20" value="4. Trả về dữ liệu chi tiết thuốc" style="html=1;verticalAlign=bottom;endArrow=open;dashed=1;endSize=8;curved=0;rounded=0;" parent="1" edge="1">
          <mxGeometry relative="1" as="geometry">
            <mxPoint x="1200" y="549" as="sourcePoint" />
            <mxPoint x="950" y="549" as="targetPoint" />
          </mxGeometry>
        </mxCell>
        <mxCell id="oIE3M8GX71ygRRzZbENh-22" value="5. Xử lý dữ liệu kết quả và gửi lên hệ thống" style="html=1;verticalAlign=bottom;endArrow=open;dashed=1;endSize=8;curved=0;rounded=0;" parent="1" edge="1">
          <mxGeometry relative="1" as="geometry">
            <mxPoint x="939.5" y="580" as="sourcePoint" />
            <mxPoint x="680" y="580" as="targetPoint" />
          </mxGeometry>
        </mxCell>
        <mxCell id="oIE3M8GX71ygRRzZbENh-26" value="6. Hiển thị thông tin chi tiết thuốc&amp;nbsp;" style="html=1;verticalAlign=bottom;endArrow=open;dashed=1;endSize=8;curved=0;rounded=0;entryX=1;entryY=0.606;entryDx=0;entryDy=0;entryPerimeter=0;" parent="1" source="oIE3M8GX71ygRRzZbENh-1" target="oIE3M8GX71ygRRzZbENh-10" edge="1">
          <mxGeometry relative="1" as="geometry">
            <mxPoint x="440" y="620" as="sourcePoint" />
            <mxPoint x="360" y="620" as="targetPoint" />
          </mxGeometry>
        </mxCell>
      </root>
    </mxGraphModel>
  </diagram>
  <diagram id="pjK3PVBgcrvQ6qWM4FIk" name="SD006">
    <mxGraphModel dx="1025" dy="562" grid="1" gridSize="10" guides="1" tooltips="1" connect="1" arrows="1" fold="1" page="1" pageScale="1" pageWidth="850" pageHeight="1100" math="0" shadow="0">
      <root>
        <mxCell id="0" />
        <mxCell id="1" parent="0" />
        <mxCell id="4wJ6CkfRTm86tuNHwfKl-1" value="" style="shape=umlLifeline;perimeter=lifelinePerimeter;whiteSpace=wrap;html=1;container=1;dropTarget=0;collapsible=0;recursiveResize=0;outlineConnect=0;portConstraint=eastwest;newEdgeStyle={&quot;curved&quot;:0,&quot;rounded&quot;:0};participant=umlBoundary;" parent="1" vertex="1">
          <mxGeometry x="660" y="140" width="50" height="400" as="geometry" />
        </mxCell>
        <mxCell id="4wJ6CkfRTm86tuNHwfKl-2" value="" style="html=1;points=[[0,0,0,0,5],[0,1,0,0,-5],[1,0,0,0,5],[1,1,0,0,-5]];perimeter=orthogonalPerimeter;outlineConnect=0;targetShapes=umlLifeline;portConstraint=eastwest;newEdgeStyle={&quot;curved&quot;:0,&quot;rounded&quot;:0};" parent="4wJ6CkfRTm86tuNHwfKl-1" vertex="1">
          <mxGeometry x="20" y="90" width="10" height="80" as="geometry" />
        </mxCell>
        <mxCell id="4wJ6CkfRTm86tuNHwfKl-3" value="" style="html=1;points=[[0,0,0,0,5],[0,1,0,0,-5],[1,0,0,0,5],[1,1,0,0,-5]];perimeter=orthogonalPerimeter;outlineConnect=0;targetShapes=umlLifeline;portConstraint=eastwest;newEdgeStyle={&quot;curved&quot;:0,&quot;rounded&quot;:0};" parent="4wJ6CkfRTm86tuNHwfKl-1" vertex="1">
          <mxGeometry x="20" y="245" width="10" height="80" as="geometry" />
        </mxCell>
        <mxCell id="4wJ6CkfRTm86tuNHwfKl-5" value="" style="shape=umlLifeline;perimeter=lifelinePerimeter;whiteSpace=wrap;html=1;container=1;dropTarget=0;collapsible=0;recursiveResize=0;outlineConnect=0;portConstraint=eastwest;newEdgeStyle={&quot;curved&quot;:0,&quot;rounded&quot;:0};participant=umlEntity;" parent="1" vertex="1">
          <mxGeometry x="1200" y="140" width="40" height="420" as="geometry" />
        </mxCell>
        <mxCell id="4wJ6CkfRTm86tuNHwfKl-6" value="" style="html=1;points=[[0,0,0,0,5],[0,1,0,0,-5],[1,0,0,0,5],[1,1,0,0,-5]];perimeter=orthogonalPerimeter;outlineConnect=0;targetShapes=umlLifeline;portConstraint=eastwest;newEdgeStyle={&quot;curved&quot;:0,&quot;rounded&quot;:0};" parent="4wJ6CkfRTm86tuNHwfKl-5" vertex="1">
          <mxGeometry x="15" y="180" width="10" height="130" as="geometry" />
        </mxCell>
        <mxCell id="4wJ6CkfRTm86tuNHwfKl-7" value="" style="shape=umlLifeline;perimeter=lifelinePerimeter;whiteSpace=wrap;html=1;container=1;dropTarget=0;collapsible=0;recursiveResize=0;outlineConnect=0;portConstraint=eastwest;newEdgeStyle={&quot;curved&quot;:0,&quot;rounded&quot;:0};participant=umlControl;" parent="1" vertex="1">
          <mxGeometry x="930" y="140" width="40" height="420" as="geometry" />
        </mxCell>
        <mxCell id="4wJ6CkfRTm86tuNHwfKl-8" value="" style="html=1;points=[[0,0,0,0,5],[0,1,0,0,-5],[1,0,0,0,5],[1,1,0,0,-5]];perimeter=orthogonalPerimeter;outlineConnect=0;targetShapes=umlLifeline;portConstraint=eastwest;newEdgeStyle={&quot;curved&quot;:0,&quot;rounded&quot;:0};" parent="4wJ6CkfRTm86tuNHwfKl-7" vertex="1">
          <mxGeometry x="15" y="130" width="10" height="240" as="geometry" />
        </mxCell>
        <mxCell id="4wJ6CkfRTm86tuNHwfKl-9" value="Người dùng" style="shape=umlActor;verticalLabelPosition=bottom;verticalAlign=top;html=1;" parent="1" vertex="1">
          <mxGeometry x="260" y="120" width="30" height="60" as="geometry" />
        </mxCell>
        <mxCell id="4wJ6CkfRTm86tuNHwfKl-10" value="" style="html=1;points=[[0,0,0,0,5],[0,1,0,0,-5],[1,0,0,0,5],[1,1,0,0,-5]];perimeter=orthogonalPerimeter;outlineConnect=0;targetShapes=umlLifeline;portConstraint=eastwest;newEdgeStyle={&quot;curved&quot;:0,&quot;rounded&quot;:0};" parent="1" vertex="1">
          <mxGeometry x="270" y="210" width="10" height="330" as="geometry" />
        </mxCell>
        <mxCell id="4wJ6CkfRTm86tuNHwfKl-11" value="Giao diện hệ thống" style="text;html=1;align=center;verticalAlign=middle;resizable=0;points=[];autosize=1;strokeColor=none;fillColor=none;" parent="1" vertex="1">
          <mxGeometry x="620" y="180" width="120" height="30" as="geometry" />
        </mxCell>
        <mxCell id="4wJ6CkfRTm86tuNHwfKl-12" value="Lưu thuốc" style="text;html=1;align=center;verticalAlign=middle;resizable=0;points=[];autosize=1;strokeColor=none;fillColor=none;" parent="1" vertex="1">
          <mxGeometry x="910" y="180" width="80" height="30" as="geometry" />
        </mxCell>
        <mxCell id="4wJ6CkfRTm86tuNHwfKl-13" value="Cơ sở dữ liệu" style="text;html=1;align=center;verticalAlign=middle;resizable=0;points=[];autosize=1;strokeColor=none;fillColor=none;" parent="1" vertex="1">
          <mxGeometry x="1170" y="180" width="100" height="30" as="geometry" />
        </mxCell>
        <mxCell id="4wJ6CkfRTm86tuNHwfKl-14" value="1. Chọn &quot;Lưu&quot; từ 1 thuốc trong danh sách kết quả" style="html=1;verticalAlign=bottom;startArrow=none;endArrow=block;startSize=8;curved=0;rounded=0;entryX=0;entryY=0;entryDx=0;entryDy=5;startFill=0;" parent="1" source="4wJ6CkfRTm86tuNHwfKl-10" target="4wJ6CkfRTm86tuNHwfKl-2" edge="1">
          <mxGeometry relative="1" as="geometry">
            <mxPoint x="610" y="235" as="sourcePoint" />
          </mxGeometry>
        </mxCell>
        <mxCell id="4wJ6CkfRTm86tuNHwfKl-18" value="2. Gửi thông tin thuốc cần lưu" style="html=1;verticalAlign=bottom;startArrow=none;endArrow=block;startSize=8;curved=0;rounded=0;entryX=0;entryY=0;entryDx=0;entryDy=5;startFill=0;" parent="1" source="4wJ6CkfRTm86tuNHwfKl-2" target="4wJ6CkfRTm86tuNHwfKl-8" edge="1">
          <mxGeometry relative="1" as="geometry">
            <mxPoint x="700" y="275" as="sourcePoint" />
          </mxGeometry>
        </mxCell>
        <mxCell id="4wJ6CkfRTm86tuNHwfKl-19" value="3. Thêm thuốc vào danh sách lưu" style="html=1;verticalAlign=bottom;startArrow=none;endArrow=block;startSize=8;curved=0;rounded=0;entryX=0;entryY=0;entryDx=0;entryDy=5;startFill=0;" parent="1" target="4wJ6CkfRTm86tuNHwfKl-6" edge="1">
          <mxGeometry relative="1" as="geometry">
            <mxPoint x="960" y="325" as="sourcePoint" />
          </mxGeometry>
        </mxCell>
        <mxCell id="4wJ6CkfRTm86tuNHwfKl-20" value="4. Xác nhận lưu thành công" style="html=1;verticalAlign=bottom;endArrow=open;dashed=1;endSize=8;curved=0;rounded=0;" parent="1" edge="1">
          <mxGeometry relative="1" as="geometry">
            <mxPoint x="1210" y="400" as="sourcePoint" />
            <mxPoint x="960" y="400" as="targetPoint" />
          </mxGeometry>
        </mxCell>
        <mxCell id="4wJ6CkfRTm86tuNHwfKl-22" value="5. Thông báo lưu thành công" style="html=1;verticalAlign=bottom;endArrow=open;dashed=1;endSize=8;curved=0;rounded=0;" parent="1" edge="1">
          <mxGeometry relative="1" as="geometry">
            <mxPoint x="940" y="424" as="sourcePoint" />
            <mxPoint x="690" y="424.33000000000004" as="targetPoint" />
          </mxGeometry>
        </mxCell>
        <mxCell id="4wJ6CkfRTm86tuNHwfKl-24" value="6. Hiển thị thông báo lưu thuốc thành công" style="html=1;verticalAlign=bottom;endArrow=open;dashed=1;endSize=8;curved=0;rounded=0;" parent="1" edge="1">
          <mxGeometry relative="1" as="geometry">
            <mxPoint x="680" y="450" as="sourcePoint" />
            <mxPoint x="280" y="450" as="targetPoint" />
          </mxGeometry>
        </mxCell>
      </root>
    </mxGraphModel>
  </diagram>
  <diagram id="gzIuuguvNpHsY75roaq6" name="SD007">
    <mxGraphModel dx="1025" dy="562" grid="1" gridSize="10" guides="1" tooltips="1" connect="1" arrows="1" fold="1" page="1" pageScale="1" pageWidth="850" pageHeight="1100" math="0" shadow="0">
      <root>
        <mxCell id="0" />
        <mxCell id="1" parent="0" />
        <mxCell id="JYkOpcf4HGdpvwfmlAWf-1" value="" style="shape=umlLifeline;perimeter=lifelinePerimeter;whiteSpace=wrap;html=1;container=1;dropTarget=0;collapsible=0;recursiveResize=0;outlineConnect=0;portConstraint=eastwest;newEdgeStyle={&quot;curved&quot;:0,&quot;rounded&quot;:0};participant=umlBoundary;" parent="1" vertex="1">
          <mxGeometry x="820" y="330" width="50" height="620" as="geometry" />
        </mxCell>
        <mxCell id="JYkOpcf4HGdpvwfmlAWf-2" value="" style="html=1;points=[[0,0,0,0,5],[0,1,0,0,-5],[1,0,0,0,5],[1,1,0,0,-5]];perimeter=orthogonalPerimeter;outlineConnect=0;targetShapes=umlLifeline;portConstraint=eastwest;newEdgeStyle={&quot;curved&quot;:0,&quot;rounded&quot;:0};" parent="JYkOpcf4HGdpvwfmlAWf-1" vertex="1">
          <mxGeometry x="20" y="90" width="10" height="80" as="geometry" />
        </mxCell>
        <mxCell id="JYkOpcf4HGdpvwfmlAWf-3" value="" style="html=1;points=[[0,0,0,0,5],[0,1,0,0,-5],[1,0,0,0,5],[1,1,0,0,-5]];perimeter=orthogonalPerimeter;outlineConnect=0;targetShapes=umlLifeline;portConstraint=eastwest;newEdgeStyle={&quot;curved&quot;:0,&quot;rounded&quot;:0};" parent="JYkOpcf4HGdpvwfmlAWf-1" vertex="1">
          <mxGeometry x="20" y="220" width="10" height="80" as="geometry" />
        </mxCell>
        <mxCell id="JYkOpcf4HGdpvwfmlAWf-21" value="" style="html=1;points=[[0,0,0,0,5],[0,1,0,0,-5],[1,0,0,0,5],[1,1,0,0,-5]];perimeter=orthogonalPerimeter;outlineConnect=0;targetShapes=umlLifeline;portConstraint=eastwest;newEdgeStyle={&quot;curved&quot;:0,&quot;rounded&quot;:0};" parent="JYkOpcf4HGdpvwfmlAWf-1" vertex="1">
          <mxGeometry x="20" y="360" width="10" height="140" as="geometry" />
        </mxCell>
        <mxCell id="JYkOpcf4HGdpvwfmlAWf-28" value="" style="html=1;points=[[0,0,0,0,5],[0,1,0,0,-5],[1,0,0,0,5],[1,1,0,0,-5]];perimeter=orthogonalPerimeter;outlineConnect=0;targetShapes=umlLifeline;portConstraint=eastwest;newEdgeStyle={&quot;curved&quot;:0,&quot;rounded&quot;:0};" parent="JYkOpcf4HGdpvwfmlAWf-1" vertex="1">
          <mxGeometry x="20" y="540" width="10" height="80" as="geometry" />
        </mxCell>
        <mxCell id="JYkOpcf4HGdpvwfmlAWf-4" value="" style="shape=umlLifeline;perimeter=lifelinePerimeter;whiteSpace=wrap;html=1;container=1;dropTarget=0;collapsible=0;recursiveResize=0;outlineConnect=0;portConstraint=eastwest;newEdgeStyle={&quot;curved&quot;:0,&quot;rounded&quot;:0};participant=umlEntity;" parent="1" vertex="1">
          <mxGeometry x="1360" y="330" width="40" height="620" as="geometry" />
        </mxCell>
        <mxCell id="JYkOpcf4HGdpvwfmlAWf-5" value="" style="html=1;points=[[0,0,0,0,5],[0,1,0,0,-5],[1,0,0,0,5],[1,1,0,0,-5]];perimeter=orthogonalPerimeter;outlineConnect=0;targetShapes=umlLifeline;portConstraint=eastwest;newEdgeStyle={&quot;curved&quot;:0,&quot;rounded&quot;:0};" parent="JYkOpcf4HGdpvwfmlAWf-4" vertex="1">
          <mxGeometry x="15" y="135" width="10" height="130" as="geometry" />
        </mxCell>
        <mxCell id="JYkOpcf4HGdpvwfmlAWf-26" value="" style="html=1;points=[[0,0,0,0,5],[0,1,0,0,-5],[1,0,0,0,5],[1,1,0,0,-5]];perimeter=orthogonalPerimeter;outlineConnect=0;targetShapes=umlLifeline;portConstraint=eastwest;newEdgeStyle={&quot;curved&quot;:0,&quot;rounded&quot;:0};" parent="JYkOpcf4HGdpvwfmlAWf-4" vertex="1">
          <mxGeometry x="15" y="480" width="10" height="80" as="geometry" />
        </mxCell>
        <mxCell id="JYkOpcf4HGdpvwfmlAWf-6" value="" style="shape=umlLifeline;perimeter=lifelinePerimeter;whiteSpace=wrap;html=1;container=1;dropTarget=0;collapsible=0;recursiveResize=0;outlineConnect=0;portConstraint=eastwest;newEdgeStyle={&quot;curved&quot;:0,&quot;rounded&quot;:0};participant=umlControl;" parent="1" vertex="1">
          <mxGeometry x="1090" y="330" width="40" height="620" as="geometry" />
        </mxCell>
        <mxCell id="JYkOpcf4HGdpvwfmlAWf-7" value="" style="html=1;points=[[0,0,0,0,5],[0,1,0,0,-5],[1,0,0,0,5],[1,1,0,0,-5]];perimeter=orthogonalPerimeter;outlineConnect=0;targetShapes=umlLifeline;portConstraint=eastwest;newEdgeStyle={&quot;curved&quot;:0,&quot;rounded&quot;:0};" parent="JYkOpcf4HGdpvwfmlAWf-6" vertex="1">
          <mxGeometry x="15" y="110" width="10" height="160" as="geometry" />
        </mxCell>
        <mxCell id="JYkOpcf4HGdpvwfmlAWf-23" value="" style="html=1;points=[[0,0,0,0,5],[0,1,0,0,-5],[1,0,0,0,5],[1,1,0,0,-5]];perimeter=orthogonalPerimeter;outlineConnect=0;targetShapes=umlLifeline;portConstraint=eastwest;newEdgeStyle={&quot;curved&quot;:0,&quot;rounded&quot;:0};" parent="JYkOpcf4HGdpvwfmlAWf-6" vertex="1">
          <mxGeometry x="15" y="450" width="10" height="130" as="geometry" />
        </mxCell>
        <mxCell id="JYkOpcf4HGdpvwfmlAWf-8" value="Người dùng" style="shape=umlActor;verticalLabelPosition=bottom;verticalAlign=top;html=1;" parent="1" vertex="1">
          <mxGeometry x="380" y="310" width="30" height="60" as="geometry" />
        </mxCell>
        <mxCell id="JYkOpcf4HGdpvwfmlAWf-9" value="" style="html=1;points=[[0,0,0,0,5],[0,1,0,0,-5],[1,0,0,0,5],[1,1,0,0,-5]];perimeter=orthogonalPerimeter;outlineConnect=0;targetShapes=umlLifeline;portConstraint=eastwest;newEdgeStyle={&quot;curved&quot;:0,&quot;rounded&quot;:0};" parent="1" vertex="1">
          <mxGeometry x="390" y="400" width="10" height="560" as="geometry" />
        </mxCell>
        <mxCell id="JYkOpcf4HGdpvwfmlAWf-10" value="Giao diện hệ thống" style="text;html=1;align=center;verticalAlign=middle;resizable=0;points=[];autosize=1;strokeColor=none;fillColor=none;" parent="1" vertex="1">
          <mxGeometry x="785" y="370" width="120" height="30" as="geometry" />
        </mxCell>
        <mxCell id="JYkOpcf4HGdpvwfmlAWf-11" value="Xem lịch sử gợi ý" style="text;html=1;align=center;verticalAlign=middle;resizable=0;points=[];autosize=1;strokeColor=none;fillColor=none;" parent="1" vertex="1">
          <mxGeometry x="1050" y="370" width="120" height="30" as="geometry" />
        </mxCell>
        <mxCell id="JYkOpcf4HGdpvwfmlAWf-12" value="Cơ sở dữ liệu" style="text;html=1;align=center;verticalAlign=middle;resizable=0;points=[];autosize=1;strokeColor=none;fillColor=none;" parent="1" vertex="1">
          <mxGeometry x="1330" y="370" width="100" height="30" as="geometry" />
        </mxCell>
        <mxCell id="JYkOpcf4HGdpvwfmlAWf-13" value="1. Chọn &quot;Xem lịch sử gợi&quot; từ trang chủ" style="html=1;verticalAlign=bottom;startArrow=none;endArrow=block;startSize=8;curved=0;rounded=0;entryX=0;entryY=0;entryDx=0;entryDy=5;startFill=0;" parent="1" source="JYkOpcf4HGdpvwfmlAWf-9" target="JYkOpcf4HGdpvwfmlAWf-2" edge="1">
          <mxGeometry relative="1" as="geometry">
            <mxPoint x="770" y="425" as="sourcePoint" />
          </mxGeometry>
        </mxCell>
        <mxCell id="JYkOpcf4HGdpvwfmlAWf-14" style="rounded=0;orthogonalLoop=1;jettySize=auto;html=1;exitX=0;exitY=1;exitDx=0;exitDy=-5;exitPerimeter=0;dashed=1;endArrow=open;endFill=0;" parent="1" source="JYkOpcf4HGdpvwfmlAWf-2" target="JYkOpcf4HGdpvwfmlAWf-9" edge="1">
          <mxGeometry relative="1" as="geometry" />
        </mxCell>
        <mxCell id="JYkOpcf4HGdpvwfmlAWf-15" value="2. Hiển thị form đăng nhập" style="edgeLabel;html=1;align=center;verticalAlign=middle;resizable=0;points=[];" parent="JYkOpcf4HGdpvwfmlAWf-14" vertex="1" connectable="0">
          <mxGeometry x="-0.0338" y="-3" relative="1" as="geometry">
            <mxPoint y="-12" as="offset" />
          </mxGeometry>
        </mxCell>
        <mxCell id="JYkOpcf4HGdpvwfmlAWf-16" value="2. Gửi yêu cầu lấy lịch sử gợi ý" style="html=1;verticalAlign=bottom;startArrow=none;endArrow=block;startSize=8;curved=0;rounded=0;startFill=0;" parent="1" edge="1">
          <mxGeometry relative="1" as="geometry">
            <mxPoint x="849.9966666666668" y="450" as="sourcePoint" />
            <mxPoint x="1100" y="450" as="targetPoint" />
          </mxGeometry>
        </mxCell>
        <mxCell id="JYkOpcf4HGdpvwfmlAWf-17" value="3. Truy vấn để lấy danh sách gợi ý" style="html=1;verticalAlign=bottom;startArrow=none;endArrow=block;startSize=8;curved=0;rounded=0;entryX=0;entryY=0;entryDx=0;entryDy=5;startFill=0;" parent="1" target="JYkOpcf4HGdpvwfmlAWf-5" edge="1">
          <mxGeometry relative="1" as="geometry">
            <mxPoint x="1120" y="470" as="sourcePoint" />
          </mxGeometry>
        </mxCell>
        <mxCell id="JYkOpcf4HGdpvwfmlAWf-18" value="4. Trả về danh sách lịch sử gợi ý" style="html=1;verticalAlign=bottom;endArrow=open;dashed=1;endSize=8;curved=0;rounded=0;" parent="1" edge="1">
          <mxGeometry relative="1" as="geometry">
            <mxPoint x="1370" y="529" as="sourcePoint" />
            <mxPoint x="1120" y="529" as="targetPoint" />
          </mxGeometry>
        </mxCell>
        <mxCell id="JYkOpcf4HGdpvwfmlAWf-19" value="5. Xử lý dữ liệu kết quả và gửi lên hệ thống" style="html=1;verticalAlign=bottom;endArrow=open;dashed=1;endSize=8;curved=0;rounded=0;" parent="1" edge="1">
          <mxGeometry relative="1" as="geometry">
            <mxPoint x="1109.5" y="560" as="sourcePoint" />
            <mxPoint x="850" y="560" as="targetPoint" />
          </mxGeometry>
        </mxCell>
        <mxCell id="JYkOpcf4HGdpvwfmlAWf-20" value="6. Hiển thị danh sách lịch sử gợi ý&amp;nbsp;" style="html=1;verticalAlign=bottom;endArrow=open;dashed=1;endSize=8;curved=0;rounded=0;" parent="1" target="JYkOpcf4HGdpvwfmlAWf-9" edge="1">
          <mxGeometry relative="1" as="geometry">
            <mxPoint x="840" y="620" as="sourcePoint" />
            <mxPoint x="530" y="600" as="targetPoint" />
          </mxGeometry>
        </mxCell>
        <mxCell id="JYkOpcf4HGdpvwfmlAWf-22" value="7. Chọn 1 kết quả từ danh sách lịch sử gợi ý để xem chi tiết" style="html=1;verticalAlign=bottom;endArrow=block;curved=0;rounded=0;" parent="1" target="JYkOpcf4HGdpvwfmlAWf-21" edge="1">
          <mxGeometry width="80" relative="1" as="geometry">
            <mxPoint x="400" y="750" as="sourcePoint" />
            <mxPoint x="830" y="750" as="targetPoint" />
          </mxGeometry>
        </mxCell>
        <mxCell id="JYkOpcf4HGdpvwfmlAWf-24" value="8. Gửi yêu cầu xem chi tiết thuốc" style="html=1;verticalAlign=bottom;endArrow=block;curved=0;rounded=0;" parent="1" edge="1">
          <mxGeometry width="80" relative="1" as="geometry">
            <mxPoint x="850" y="810" as="sourcePoint" />
            <mxPoint x="1100" y="810" as="targetPoint" />
          </mxGeometry>
        </mxCell>
        <mxCell id="JYkOpcf4HGdpvwfmlAWf-25" value="9. Truy vấn để lấy thông tin thuốc" style="html=1;verticalAlign=bottom;endArrow=block;curved=0;rounded=0;" parent="1" edge="1">
          <mxGeometry width="80" relative="1" as="geometry">
            <mxPoint x="1120" y="830" as="sourcePoint" />
            <mxPoint x="1370" y="830" as="targetPoint" />
          </mxGeometry>
        </mxCell>
        <mxCell id="JYkOpcf4HGdpvwfmlAWf-27" value="10. Trả về kết quả thuốc" style="html=1;verticalAlign=bottom;endArrow=open;dashed=1;endSize=8;curved=0;rounded=0;" parent="1" source="JYkOpcf4HGdpvwfmlAWf-26" edge="1">
          <mxGeometry relative="1" as="geometry">
            <mxPoint x="1200" y="880" as="sourcePoint" />
            <mxPoint x="1120" y="880" as="targetPoint" />
          </mxGeometry>
        </mxCell>
        <mxCell id="JYkOpcf4HGdpvwfmlAWf-29" value="11. Gửi kết quả lên hệ thống" style="html=1;verticalAlign=bottom;endArrow=open;dashed=1;endSize=8;curved=0;rounded=0;" parent="1" edge="1">
          <mxGeometry relative="1" as="geometry">
            <mxPoint x="1100" y="890" as="sourcePoint" />
            <mxPoint x="850" y="890" as="targetPoint" />
          </mxGeometry>
        </mxCell>
        <mxCell id="JYkOpcf4HGdpvwfmlAWf-30" value="12. Hiển thị kết quả thuốc chi tiết&amp;nbsp;" style="html=1;verticalAlign=bottom;endArrow=open;dashed=1;endSize=8;curved=0;rounded=0;" parent="1" target="JYkOpcf4HGdpvwfmlAWf-9" edge="1">
          <mxGeometry relative="1" as="geometry">
            <mxPoint x="840" y="910" as="sourcePoint" />
            <mxPoint x="760" y="910" as="targetPoint" />
          </mxGeometry>
        </mxCell>
      </root>
    </mxGraphModel>
  </diagram>
  <diagram id="-ooI35Qc321_rchBpjv5" name="SD008">
    <mxGraphModel dx="1025" dy="562" grid="1" gridSize="10" guides="1" tooltips="1" connect="1" arrows="1" fold="1" page="1" pageScale="1" pageWidth="850" pageHeight="1100" math="0" shadow="0">
      <root>
        <mxCell id="0" />
        <mxCell id="1" parent="0" />
        <mxCell id="J2sW35ZUsS_ppcQmbDmU-1" value="" style="shape=umlLifeline;perimeter=lifelinePerimeter;whiteSpace=wrap;html=1;container=1;dropTarget=0;collapsible=0;recursiveResize=0;outlineConnect=0;portConstraint=eastwest;newEdgeStyle={&quot;curved&quot;:0,&quot;rounded&quot;:0};participant=umlBoundary;" parent="1" vertex="1">
          <mxGeometry x="790" y="270" width="50" height="570" as="geometry" />
        </mxCell>
        <mxCell id="J2sW35ZUsS_ppcQmbDmU-2" value="" style="html=1;points=[[0,0,0,0,5],[0,1,0,0,-5],[1,0,0,0,5],[1,1,0,0,-5]];perimeter=orthogonalPerimeter;outlineConnect=0;targetShapes=umlLifeline;portConstraint=eastwest;newEdgeStyle={&quot;curved&quot;:0,&quot;rounded&quot;:0};" parent="J2sW35ZUsS_ppcQmbDmU-1" vertex="1">
          <mxGeometry x="20" y="90" width="10" height="160" as="geometry" />
        </mxCell>
        <mxCell id="J2sW35ZUsS_ppcQmbDmU-3" value="" style="html=1;points=[[0,0,0,0,5],[0,1,0,0,-5],[1,0,0,0,5],[1,1,0,0,-5]];perimeter=orthogonalPerimeter;outlineConnect=0;targetShapes=umlLifeline;portConstraint=eastwest;newEdgeStyle={&quot;curved&quot;:0,&quot;rounded&quot;:0};" parent="J2sW35ZUsS_ppcQmbDmU-1" vertex="1">
          <mxGeometry x="20" y="290" width="10" height="80" as="geometry" />
        </mxCell>
        <mxCell id="J2sW35ZUsS_ppcQmbDmU-24" value="" style="html=1;points=[[0,0,0,0,5],[0,1,0,0,-5],[1,0,0,0,5],[1,1,0,0,-5]];perimeter=orthogonalPerimeter;outlineConnect=0;targetShapes=umlLifeline;portConstraint=eastwest;newEdgeStyle={&quot;curved&quot;:0,&quot;rounded&quot;:0};" parent="J2sW35ZUsS_ppcQmbDmU-1" vertex="1">
          <mxGeometry x="20" y="410" width="10" height="80" as="geometry" />
        </mxCell>
        <mxCell id="J2sW35ZUsS_ppcQmbDmU-4" value="" style="shape=umlLifeline;perimeter=lifelinePerimeter;whiteSpace=wrap;html=1;container=1;dropTarget=0;collapsible=0;recursiveResize=0;outlineConnect=0;portConstraint=eastwest;newEdgeStyle={&quot;curved&quot;:0,&quot;rounded&quot;:0};participant=umlEntity;" parent="1" vertex="1">
          <mxGeometry x="1330" y="270" width="40" height="570" as="geometry" />
        </mxCell>
        <mxCell id="J2sW35ZUsS_ppcQmbDmU-5" value="" style="html=1;points=[[0,0,0,0,5],[0,1,0,0,-5],[1,0,0,0,5],[1,1,0,0,-5]];perimeter=orthogonalPerimeter;outlineConnect=0;targetShapes=umlLifeline;portConstraint=eastwest;newEdgeStyle={&quot;curved&quot;:0,&quot;rounded&quot;:0};" parent="J2sW35ZUsS_ppcQmbDmU-4" vertex="1">
          <mxGeometry x="15" y="180" width="10" height="230" as="geometry" />
        </mxCell>
        <mxCell id="J2sW35ZUsS_ppcQmbDmU-6" value="" style="shape=umlLifeline;perimeter=lifelinePerimeter;whiteSpace=wrap;html=1;container=1;dropTarget=0;collapsible=0;recursiveResize=0;outlineConnect=0;portConstraint=eastwest;newEdgeStyle={&quot;curved&quot;:0,&quot;rounded&quot;:0};participant=umlControl;" parent="1" vertex="1">
          <mxGeometry x="1060" y="270" width="40" height="580" as="geometry" />
        </mxCell>
        <mxCell id="J2sW35ZUsS_ppcQmbDmU-7" value="" style="html=1;points=[[0,0,0,0,5],[0,1,0,0,-5],[1,0,0,0,5],[1,1,0,0,-5]];perimeter=orthogonalPerimeter;outlineConnect=0;targetShapes=umlLifeline;portConstraint=eastwest;newEdgeStyle={&quot;curved&quot;:0,&quot;rounded&quot;:0};" parent="J2sW35ZUsS_ppcQmbDmU-6" vertex="1">
          <mxGeometry x="15" y="130" width="10" height="350" as="geometry" />
        </mxCell>
        <mxCell id="J2sW35ZUsS_ppcQmbDmU-22" value="" style="html=1;points=[[0,0,0,0,5],[0,1,0,0,-5],[1,0,0,0,5],[1,1,0,0,-5]];perimeter=orthogonalPerimeter;outlineConnect=0;targetShapes=umlLifeline;portConstraint=eastwest;newEdgeStyle={&quot;curved&quot;:0,&quot;rounded&quot;:0};" parent="J2sW35ZUsS_ppcQmbDmU-6" vertex="1">
          <mxGeometry x="25" y="300" width="10" height="40" as="geometry" />
        </mxCell>
        <mxCell id="J2sW35ZUsS_ppcQmbDmU-23" value="5.2. Gửi thông báo thông tin không hợp lệ" style="html=1;align=left;spacingLeft=2;endArrow=block;rounded=0;edgeStyle=orthogonalEdgeStyle;curved=0;rounded=0;" parent="J2sW35ZUsS_ppcQmbDmU-6" target="J2sW35ZUsS_ppcQmbDmU-22" edge="1">
          <mxGeometry relative="1" as="geometry">
            <mxPoint x="30" y="280" as="sourcePoint" />
            <Array as="points">
              <mxPoint x="60" y="310" />
            </Array>
          </mxGeometry>
        </mxCell>
        <mxCell id="J2sW35ZUsS_ppcQmbDmU-8" value="Người dùng" style="shape=umlActor;verticalLabelPosition=bottom;verticalAlign=top;html=1;" parent="1" vertex="1">
          <mxGeometry x="390" y="250" width="30" height="60" as="geometry" />
        </mxCell>
        <mxCell id="J2sW35ZUsS_ppcQmbDmU-9" value="" style="html=1;points=[[0,0,0,0,5],[0,1,0,0,-5],[1,0,0,0,5],[1,1,0,0,-5]];perimeter=orthogonalPerimeter;outlineConnect=0;targetShapes=umlLifeline;portConstraint=eastwest;newEdgeStyle={&quot;curved&quot;:0,&quot;rounded&quot;:0};" parent="1" vertex="1">
          <mxGeometry x="400" y="340" width="10" height="510" as="geometry" />
        </mxCell>
        <mxCell id="J2sW35ZUsS_ppcQmbDmU-10" value="Giao diện hệ thống" style="text;html=1;align=center;verticalAlign=middle;resizable=0;points=[];autosize=1;strokeColor=none;fillColor=none;" parent="1" vertex="1">
          <mxGeometry x="750" y="310" width="120" height="30" as="geometry" />
        </mxCell>
        <mxCell id="J2sW35ZUsS_ppcQmbDmU-11" value="Cập nhật thông tin tài khoản" style="text;html=1;align=center;verticalAlign=middle;resizable=0;points=[];autosize=1;strokeColor=none;fillColor=none;" parent="1" vertex="1">
          <mxGeometry x="995" y="310" width="170" height="30" as="geometry" />
        </mxCell>
        <mxCell id="J2sW35ZUsS_ppcQmbDmU-12" value="Cơ sở dữ liệu" style="text;html=1;align=center;verticalAlign=middle;resizable=0;points=[];autosize=1;strokeColor=none;fillColor=none;" parent="1" vertex="1">
          <mxGeometry x="1300" y="310" width="100" height="30" as="geometry" />
        </mxCell>
        <mxCell id="J2sW35ZUsS_ppcQmbDmU-13" value="1. Chọn &quot;Thông tin cá nhân&quot; từ giao diện trang chủ" style="html=1;verticalAlign=bottom;startArrow=none;endArrow=block;startSize=8;curved=0;rounded=0;entryX=0;entryY=0;entryDx=0;entryDy=5;startFill=0;" parent="1" source="J2sW35ZUsS_ppcQmbDmU-9" target="J2sW35ZUsS_ppcQmbDmU-2" edge="1">
          <mxGeometry relative="1" as="geometry">
            <mxPoint x="740" y="365" as="sourcePoint" />
          </mxGeometry>
        </mxCell>
        <mxCell id="J2sW35ZUsS_ppcQmbDmU-14" value="4. Gửi yêu cầu cập nhật thông tin" style="html=1;verticalAlign=bottom;startArrow=none;endArrow=block;startSize=8;curved=0;rounded=0;entryX=0;entryY=0;entryDx=0;entryDy=5;startFill=0;" parent="1" edge="1">
          <mxGeometry relative="1" as="geometry">
            <mxPoint x="820" y="510" as="sourcePoint" />
            <mxPoint x="1075" y="510" as="targetPoint" />
          </mxGeometry>
        </mxCell>
        <mxCell id="J2sW35ZUsS_ppcQmbDmU-15" value="5.1. Gửi yêu cầu cập nhật nếu thông tin hợp lệ" style="html=1;verticalAlign=bottom;startArrow=none;endArrow=block;startSize=8;curved=0;rounded=0;entryX=0;entryY=0;entryDx=0;entryDy=5;startFill=0;" parent="1" edge="1">
          <mxGeometry relative="1" as="geometry">
            <mxPoint x="1090" y="540" as="sourcePoint" />
            <mxPoint x="1345" y="540.0000000000002" as="targetPoint" />
          </mxGeometry>
        </mxCell>
        <mxCell id="J2sW35ZUsS_ppcQmbDmU-16" value="6. Xác nhận cập nhật thành công" style="html=1;verticalAlign=bottom;endArrow=open;dashed=1;endSize=8;curved=0;rounded=0;" parent="1" edge="1">
          <mxGeometry relative="1" as="geometry">
            <mxPoint x="1340" y="660" as="sourcePoint" />
            <mxPoint x="1090" y="660" as="targetPoint" />
          </mxGeometry>
        </mxCell>
        <mxCell id="J2sW35ZUsS_ppcQmbDmU-17" value="9. Gửi thông báo cập nhật thất bại" style="html=1;verticalAlign=bottom;endArrow=open;dashed=1;endSize=8;curved=0;rounded=0;" parent="1" edge="1">
          <mxGeometry relative="1" as="geometry">
            <mxPoint x="1070" y="590" as="sourcePoint" />
            <mxPoint x="820" y="590.33" as="targetPoint" />
          </mxGeometry>
        </mxCell>
        <mxCell id="J2sW35ZUsS_ppcQmbDmU-18" value="2. Hiển thị trang cập nhật thông tin" style="html=1;verticalAlign=bottom;endArrow=open;dashed=1;endSize=8;curved=0;rounded=0;" parent="1" edge="1">
          <mxGeometry relative="1" as="geometry">
            <mxPoint x="810" y="430" as="sourcePoint" />
            <mxPoint x="410" y="430" as="targetPoint" />
          </mxGeometry>
        </mxCell>
        <mxCell id="J2sW35ZUsS_ppcQmbDmU-19" value="3. Nhập thông tin muốn chỉnh sửa và nhấn nút &quot;Cập nhật&quot;&amp;nbsp;" style="html=1;verticalAlign=bottom;endArrow=block;curved=0;rounded=0;" parent="1" target="J2sW35ZUsS_ppcQmbDmU-1" edge="1">
          <mxGeometry width="80" relative="1" as="geometry">
            <mxPoint x="410" y="480" as="sourcePoint" />
            <mxPoint x="490" y="480" as="targetPoint" />
          </mxGeometry>
        </mxCell>
        <mxCell id="J2sW35ZUsS_ppcQmbDmU-25" value="7. Gửi thông báo cập nhật thành công" style="html=1;verticalAlign=bottom;endArrow=open;dashed=1;endSize=8;curved=0;rounded=0;" parent="1" source="J2sW35ZUsS_ppcQmbDmU-6" edge="1">
          <mxGeometry relative="1" as="geometry">
            <mxPoint x="900" y="710" as="sourcePoint" />
            <mxPoint x="820" y="710" as="targetPoint" />
          </mxGeometry>
        </mxCell>
        <mxCell id="J2sW35ZUsS_ppcQmbDmU-26" value="8. Hiển thị thông báo cập nhật thành công" style="html=1;verticalAlign=bottom;endArrow=open;dashed=1;endSize=8;curved=0;rounded=0;entryX=1;entryY=0.784;entryDx=0;entryDy=0;entryPerimeter=0;" parent="1" target="J2sW35ZUsS_ppcQmbDmU-9" edge="1">
          <mxGeometry relative="1" as="geometry">
            <mxPoint x="810" y="740" as="sourcePoint" />
            <mxPoint x="730" y="740" as="targetPoint" />
          </mxGeometry>
        </mxCell>
        <mxCell id="J2sW35ZUsS_ppcQmbDmU-27" value="10. Hiển thị thông báo cập nhật thất bại và yêu cầu nhập lại" style="html=1;verticalAlign=bottom;endArrow=open;dashed=1;endSize=8;curved=0;rounded=0;" parent="1" source="J2sW35ZUsS_ppcQmbDmU-1" edge="1">
          <mxGeometry relative="1" as="geometry">
            <mxPoint x="490" y="600" as="sourcePoint" />
            <mxPoint x="410" y="600" as="targetPoint" />
          </mxGeometry>
        </mxCell>
      </root>
    </mxGraphModel>
  </diagram>
  <diagram id="jQEaFTh30HpQ6Ei30eev" name="SD009">
    <mxGraphModel dx="1025" dy="562" grid="1" gridSize="10" guides="1" tooltips="1" connect="1" arrows="1" fold="1" page="1" pageScale="1" pageWidth="850" pageHeight="1100" math="0" shadow="0">
      <root>
        <mxCell id="0" />
        <mxCell id="1" parent="0" />
        <mxCell id="3e3ozBxiMzvhySGip_VT-1" value="9. Gửi thông báo mật khẩu hiện tại không khớp" style="html=1;verticalAlign=bottom;endArrow=open;dashed=1;endSize=8;curved=0;rounded=0;" parent="1" target="4lOblMUWzdzCooDk12nm-30" edge="1">
          <mxGeometry relative="1" as="geometry">
            <mxPoint x="969" y="690" as="sourcePoint" />
            <mxPoint x="720" y="700" as="targetPoint" />
          </mxGeometry>
        </mxCell>
        <mxCell id="3e3ozBxiMzvhySGip_VT-2" value="10. Hiển thị thông báo và yêu cầu nhập lại" style="html=1;verticalAlign=bottom;endArrow=open;dashed=1;endSize=8;curved=0;rounded=0;" parent="1" source="4lOblMUWzdzCooDk12nm-1" edge="1">
          <mxGeometry relative="1" as="geometry">
            <mxPoint x="620" y="700" as="sourcePoint" />
            <mxPoint x="301" y="700" as="targetPoint" />
          </mxGeometry>
        </mxCell>
        <mxCell id="4lOblMUWzdzCooDk12nm-1" value="" style="shape=umlLifeline;perimeter=lifelinePerimeter;whiteSpace=wrap;html=1;container=1;dropTarget=0;collapsible=0;recursiveResize=0;outlineConnect=0;portConstraint=eastwest;newEdgeStyle={&quot;curved&quot;:0,&quot;rounded&quot;:0};participant=umlBoundary;" parent="1" vertex="1">
          <mxGeometry x="680" y="270" width="50" height="570" as="geometry" />
        </mxCell>
        <mxCell id="4lOblMUWzdzCooDk12nm-2" value="" style="html=1;points=[[0,0,0,0,5],[0,1,0,0,-5],[1,0,0,0,5],[1,1,0,0,-5]];perimeter=orthogonalPerimeter;outlineConnect=0;targetShapes=umlLifeline;portConstraint=eastwest;newEdgeStyle={&quot;curved&quot;:0,&quot;rounded&quot;:0};" parent="4lOblMUWzdzCooDk12nm-1" vertex="1">
          <mxGeometry x="20" y="90" width="10" height="160" as="geometry" />
        </mxCell>
        <mxCell id="4lOblMUWzdzCooDk12nm-3" value="" style="html=1;points=[[0,0,0,0,5],[0,1,0,0,-5],[1,0,0,0,5],[1,1,0,0,-5]];perimeter=orthogonalPerimeter;outlineConnect=0;targetShapes=umlLifeline;portConstraint=eastwest;newEdgeStyle={&quot;curved&quot;:0,&quot;rounded&quot;:0};" parent="4lOblMUWzdzCooDk12nm-1" vertex="1">
          <mxGeometry x="20" y="290" width="10" height="80" as="geometry" />
        </mxCell>
        <mxCell id="4lOblMUWzdzCooDk12nm-4" value="" style="html=1;points=[[0,0,0,0,5],[0,1,0,0,-5],[1,0,0,0,5],[1,1,0,0,-5]];perimeter=orthogonalPerimeter;outlineConnect=0;targetShapes=umlLifeline;portConstraint=eastwest;newEdgeStyle={&quot;curved&quot;:0,&quot;rounded&quot;:0};" parent="4lOblMUWzdzCooDk12nm-1" vertex="1">
          <mxGeometry x="20" y="480" width="10" height="50" as="geometry" />
        </mxCell>
        <mxCell id="4lOblMUWzdzCooDk12nm-30" value="" style="html=1;points=[[0,0,0,0,5],[0,1,0,0,-5],[1,0,0,0,5],[1,1,0,0,-5]];perimeter=orthogonalPerimeter;outlineConnect=0;targetShapes=umlLifeline;portConstraint=eastwest;newEdgeStyle={&quot;curved&quot;:0,&quot;rounded&quot;:0};" parent="4lOblMUWzdzCooDk12nm-1" vertex="1">
          <mxGeometry x="20" y="400" width="10" height="50" as="geometry" />
        </mxCell>
        <mxCell id="4lOblMUWzdzCooDk12nm-5" value="" style="shape=umlLifeline;perimeter=lifelinePerimeter;whiteSpace=wrap;html=1;container=1;dropTarget=0;collapsible=0;recursiveResize=0;outlineConnect=0;portConstraint=eastwest;newEdgeStyle={&quot;curved&quot;:0,&quot;rounded&quot;:0};participant=umlEntity;" parent="1" vertex="1">
          <mxGeometry x="1280" y="270" width="40" height="570" as="geometry" />
        </mxCell>
        <mxCell id="4lOblMUWzdzCooDk12nm-6" value="" style="html=1;points=[[0,0,0,0,5],[0,1,0,0,-5],[1,0,0,0,5],[1,1,0,0,-5]];perimeter=orthogonalPerimeter;outlineConnect=0;targetShapes=umlLifeline;portConstraint=eastwest;newEdgeStyle={&quot;curved&quot;:0,&quot;rounded&quot;:0};" parent="4lOblMUWzdzCooDk12nm-5" vertex="1">
          <mxGeometry x="15" y="180" width="10" height="350" as="geometry" />
        </mxCell>
        <mxCell id="4lOblMUWzdzCooDk12nm-7" value="" style="shape=umlLifeline;perimeter=lifelinePerimeter;whiteSpace=wrap;html=1;container=1;dropTarget=0;collapsible=0;recursiveResize=0;outlineConnect=0;portConstraint=eastwest;newEdgeStyle={&quot;curved&quot;:0,&quot;rounded&quot;:0};participant=umlControl;" parent="1" vertex="1">
          <mxGeometry x="950" y="270" width="40" height="580" as="geometry" />
        </mxCell>
        <mxCell id="4lOblMUWzdzCooDk12nm-8" value="" style="html=1;points=[[0,0,0,0,5],[0,1,0,0,-5],[1,0,0,0,5],[1,1,0,0,-5]];perimeter=orthogonalPerimeter;outlineConnect=0;targetShapes=umlLifeline;portConstraint=eastwest;newEdgeStyle={&quot;curved&quot;:0,&quot;rounded&quot;:0};" parent="4lOblMUWzdzCooDk12nm-7" vertex="1">
          <mxGeometry x="15" y="130" width="10" height="220" as="geometry" />
        </mxCell>
        <mxCell id="4lOblMUWzdzCooDk12nm-9" value="" style="html=1;points=[[0,0,0,0,5],[0,1,0,0,-5],[1,0,0,0,5],[1,1,0,0,-5]];perimeter=orthogonalPerimeter;outlineConnect=0;targetShapes=umlLifeline;portConstraint=eastwest;newEdgeStyle={&quot;curved&quot;:0,&quot;rounded&quot;:0};" parent="4lOblMUWzdzCooDk12nm-7" vertex="1">
          <mxGeometry x="25" y="300" width="10" height="40" as="geometry" />
        </mxCell>
        <mxCell id="4lOblMUWzdzCooDk12nm-10" value="5.2. Gửi thông báo mật khẩu mới không hợp lệ" style="html=1;align=left;spacingLeft=2;endArrow=block;rounded=0;edgeStyle=orthogonalEdgeStyle;curved=0;rounded=0;" parent="4lOblMUWzdzCooDk12nm-7" target="4lOblMUWzdzCooDk12nm-9" edge="1">
          <mxGeometry relative="1" as="geometry">
            <mxPoint x="30" y="280" as="sourcePoint" />
            <Array as="points">
              <mxPoint x="60" y="310" />
            </Array>
          </mxGeometry>
        </mxCell>
        <mxCell id="4lOblMUWzdzCooDk12nm-26" value="" style="html=1;points=[[0,0,0,0,5],[0,1,0,0,-5],[1,0,0,0,5],[1,1,0,0,-5]];perimeter=orthogonalPerimeter;outlineConnect=0;targetShapes=umlLifeline;portConstraint=eastwest;newEdgeStyle={&quot;curved&quot;:0,&quot;rounded&quot;:0};" parent="4lOblMUWzdzCooDk12nm-7" vertex="1">
          <mxGeometry x="15" y="380" width="10" height="150" as="geometry" />
        </mxCell>
        <mxCell id="4lOblMUWzdzCooDk12nm-11" value="Người dùng" style="shape=umlActor;verticalLabelPosition=bottom;verticalAlign=top;html=1;" parent="1" vertex="1">
          <mxGeometry x="280" y="250" width="30" height="60" as="geometry" />
        </mxCell>
        <mxCell id="4lOblMUWzdzCooDk12nm-12" value="" style="html=1;points=[[0,0,0,0,5],[0,1,0,0,-5],[1,0,0,0,5],[1,1,0,0,-5]];perimeter=orthogonalPerimeter;outlineConnect=0;targetShapes=umlLifeline;portConstraint=eastwest;newEdgeStyle={&quot;curved&quot;:0,&quot;rounded&quot;:0};" parent="1" vertex="1">
          <mxGeometry x="290" y="340" width="10" height="510" as="geometry" />
        </mxCell>
        <mxCell id="4lOblMUWzdzCooDk12nm-13" value="Giao diện hệ thống" style="text;html=1;align=center;verticalAlign=middle;resizable=0;points=[];autosize=1;strokeColor=none;fillColor=none;" parent="1" vertex="1">
          <mxGeometry x="640" y="310" width="120" height="30" as="geometry" />
        </mxCell>
        <mxCell id="4lOblMUWzdzCooDk12nm-14" value="Đổi mật khẩu" style="text;html=1;align=center;verticalAlign=middle;resizable=0;points=[];autosize=1;strokeColor=none;fillColor=none;" parent="1" vertex="1">
          <mxGeometry x="925" y="310" width="90" height="30" as="geometry" />
        </mxCell>
        <mxCell id="4lOblMUWzdzCooDk12nm-15" value="Cơ sở dữ liệu" style="text;html=1;align=center;verticalAlign=middle;resizable=0;points=[];autosize=1;strokeColor=none;fillColor=none;" parent="1" vertex="1">
          <mxGeometry x="1250" y="310" width="100" height="30" as="geometry" />
        </mxCell>
        <mxCell id="4lOblMUWzdzCooDk12nm-16" value="1. Chọn &quot;Đổi mật khẩu&quot; từ giao diện thông tin cá nhân" style="html=1;verticalAlign=bottom;startArrow=none;endArrow=block;startSize=8;curved=0;rounded=0;entryX=0;entryY=0;entryDx=0;entryDy=5;startFill=0;" parent="1" source="4lOblMUWzdzCooDk12nm-12" target="4lOblMUWzdzCooDk12nm-2" edge="1">
          <mxGeometry relative="1" as="geometry">
            <mxPoint x="630" y="365" as="sourcePoint" />
          </mxGeometry>
        </mxCell>
        <mxCell id="4lOblMUWzdzCooDk12nm-17" value="4. Gửi thông tin mật khẩu cũ và mật khẩu mới" style="html=1;verticalAlign=bottom;startArrow=none;endArrow=block;startSize=8;curved=0;rounded=0;entryX=0;entryY=0;entryDx=0;entryDy=5;startFill=0;" parent="1" edge="1">
          <mxGeometry relative="1" as="geometry">
            <mxPoint x="710" y="510" as="sourcePoint" />
            <mxPoint x="965" y="510" as="targetPoint" />
          </mxGeometry>
        </mxCell>
        <mxCell id="4lOblMUWzdzCooDk12nm-18" value="5.1. Truy vấn để xác thực mật khẩu hiện tại" style="html=1;verticalAlign=bottom;startArrow=none;endArrow=block;startSize=8;curved=0;rounded=0;startFill=0;" parent="1" target="4lOblMUWzdzCooDk12nm-5" edge="1">
          <mxGeometry relative="1" as="geometry">
            <mxPoint x="980" y="540" as="sourcePoint" />
            <mxPoint x="1235" y="540" as="targetPoint" />
          </mxGeometry>
        </mxCell>
        <mxCell id="4lOblMUWzdzCooDk12nm-19" value="8.2 Xác nhận mật khẩu hợp lệ" style="html=1;verticalAlign=bottom;endArrow=open;dashed=1;endSize=8;curved=0;rounded=0;" parent="1" edge="1">
          <mxGeometry x="0.0016" relative="1" as="geometry">
            <mxPoint x="1299.4999999999995" y="770" as="sourcePoint" />
            <mxPoint x="980" y="770" as="targetPoint" />
            <mxPoint as="offset" />
          </mxGeometry>
        </mxCell>
        <mxCell id="4lOblMUWzdzCooDk12nm-20" value="6. Gửi thông báo cập nhật thất bại" style="html=1;verticalAlign=bottom;endArrow=open;dashed=1;endSize=8;curved=0;rounded=0;" parent="1" edge="1">
          <mxGeometry relative="1" as="geometry">
            <mxPoint x="960" y="590" as="sourcePoint" />
            <mxPoint x="710" y="590.33" as="targetPoint" />
          </mxGeometry>
        </mxCell>
        <mxCell id="4lOblMUWzdzCooDk12nm-21" value="2. Hiển thị form đổi mật khẩu" style="html=1;verticalAlign=bottom;endArrow=open;dashed=1;endSize=8;curved=0;rounded=0;" parent="1" edge="1">
          <mxGeometry relative="1" as="geometry">
            <mxPoint x="700" y="430" as="sourcePoint" />
            <mxPoint x="300" y="430" as="targetPoint" />
          </mxGeometry>
        </mxCell>
        <mxCell id="4lOblMUWzdzCooDk12nm-22" value="3. Nhập thông tin mật khẩu cũ, mật khẩu mới và xác nhận mật khẩu mới" style="html=1;verticalAlign=bottom;endArrow=block;curved=0;rounded=0;" parent="1" target="4lOblMUWzdzCooDk12nm-1" edge="1">
          <mxGeometry width="80" relative="1" as="geometry">
            <mxPoint x="300" y="480" as="sourcePoint" />
            <mxPoint x="380" y="480" as="targetPoint" />
          </mxGeometry>
        </mxCell>
        <mxCell id="4lOblMUWzdzCooDk12nm-23" value="11. Gửi thông báo đổi mật khẩu thành công" style="html=1;verticalAlign=bottom;endArrow=open;dashed=1;endSize=8;curved=0;rounded=0;" parent="1" edge="1">
          <mxGeometry relative="1" as="geometry">
            <mxPoint x="969.5" y="780" as="sourcePoint" />
            <mxPoint x="710" y="780" as="targetPoint" />
          </mxGeometry>
        </mxCell>
        <mxCell id="4lOblMUWzdzCooDk12nm-24" value="12. Hiển thị thông báo cập nhật thành công" style="html=1;verticalAlign=bottom;endArrow=open;dashed=1;endSize=8;curved=0;rounded=0;entryX=1;entryY=0.784;entryDx=0;entryDy=0;entryPerimeter=0;" parent="1" edge="1">
          <mxGeometry relative="1" as="geometry">
            <mxPoint x="700" y="790.16" as="sourcePoint" />
            <mxPoint x="300" y="789.9999999999999" as="targetPoint" />
          </mxGeometry>
        </mxCell>
        <mxCell id="4lOblMUWzdzCooDk12nm-25" value="7. Hiển thị thông báo cập nhật thất bại và yêu cầu nhập lại" style="html=1;verticalAlign=bottom;endArrow=open;dashed=1;endSize=8;curved=0;rounded=0;" parent="1" source="4lOblMUWzdzCooDk12nm-1" edge="1">
          <mxGeometry relative="1" as="geometry">
            <mxPoint x="380" y="600" as="sourcePoint" />
            <mxPoint x="300" y="600" as="targetPoint" />
          </mxGeometry>
        </mxCell>
        <mxCell id="4lOblMUWzdzCooDk12nm-27" value="8.1. Thông báo mật khẩu hiện tại không khớp" style="html=1;verticalAlign=bottom;endArrow=open;dashed=1;endSize=8;curved=0;rounded=0;" parent="1" edge="1">
          <mxGeometry relative="1" as="geometry">
            <mxPoint x="1290" y="670" as="sourcePoint" />
            <mxPoint x="980" y="670" as="targetPoint" />
          </mxGeometry>
        </mxCell>
      </root>
    </mxGraphModel>
  </diagram>
  <diagram id="SelcVpX9-JCT3957iMwc" name="SD010">
    <mxGraphModel dx="1025" dy="562" grid="1" gridSize="10" guides="1" tooltips="1" connect="1" arrows="1" fold="1" page="1" pageScale="1" pageWidth="850" pageHeight="1100" math="0" shadow="0">
      <root>
        <mxCell id="0" />
        <mxCell id="1" parent="0" />
        <mxCell id="gf4btAmfv63-5Pc0rJWt-1" value="7. Gửi thông báo cập nhật thành công" style="html=1;verticalAlign=bottom;endArrow=open;dashed=1;endSize=8;curved=0;rounded=0;" parent="1" target="gf4btAmfv63-5Pc0rJWt-7" edge="1">
          <mxGeometry relative="1" as="geometry">
            <mxPoint x="1129" y="770" as="sourcePoint" />
            <mxPoint x="880" y="780" as="targetPoint" />
          </mxGeometry>
        </mxCell>
        <mxCell id="gf4btAmfv63-5Pc0rJWt-2" value="8. Hiển thị thông báo cập nhật thành công và kết quả sau khi cập nhật" style="html=1;verticalAlign=bottom;endArrow=open;dashed=1;endSize=8;curved=0;rounded=0;" parent="1" source="gf4btAmfv63-5Pc0rJWt-3" edge="1">
          <mxGeometry relative="1" as="geometry">
            <mxPoint x="780" y="780" as="sourcePoint" />
            <mxPoint x="461" y="780" as="targetPoint" />
          </mxGeometry>
        </mxCell>
        <mxCell id="gf4btAmfv63-5Pc0rJWt-3" value="" style="shape=umlLifeline;perimeter=lifelinePerimeter;whiteSpace=wrap;html=1;container=1;dropTarget=0;collapsible=0;recursiveResize=0;outlineConnect=0;portConstraint=eastwest;newEdgeStyle={&quot;curved&quot;:0,&quot;rounded&quot;:0};participant=umlBoundary;" parent="1" vertex="1">
          <mxGeometry x="840" y="350" width="50" height="570" as="geometry" />
        </mxCell>
        <mxCell id="gf4btAmfv63-5Pc0rJWt-4" value="" style="html=1;points=[[0,0,0,0,5],[0,1,0,0,-5],[1,0,0,0,5],[1,1,0,0,-5]];perimeter=orthogonalPerimeter;outlineConnect=0;targetShapes=umlLifeline;portConstraint=eastwest;newEdgeStyle={&quot;curved&quot;:0,&quot;rounded&quot;:0};" parent="gf4btAmfv63-5Pc0rJWt-3" vertex="1">
          <mxGeometry x="20" y="90" width="10" height="160" as="geometry" />
        </mxCell>
        <mxCell id="gf4btAmfv63-5Pc0rJWt-5" value="" style="html=1;points=[[0,0,0,0,5],[0,1,0,0,-5],[1,0,0,0,5],[1,1,0,0,-5]];perimeter=orthogonalPerimeter;outlineConnect=0;targetShapes=umlLifeline;portConstraint=eastwest;newEdgeStyle={&quot;curved&quot;:0,&quot;rounded&quot;:0};" parent="gf4btAmfv63-5Pc0rJWt-3" vertex="1">
          <mxGeometry x="20" y="290" width="10" height="80" as="geometry" />
        </mxCell>
        <mxCell id="gf4btAmfv63-5Pc0rJWt-6" value="" style="html=1;points=[[0,0,0,0,5],[0,1,0,0,-5],[1,0,0,0,5],[1,1,0,0,-5]];perimeter=orthogonalPerimeter;outlineConnect=0;targetShapes=umlLifeline;portConstraint=eastwest;newEdgeStyle={&quot;curved&quot;:0,&quot;rounded&quot;:0};" parent="gf4btAmfv63-5Pc0rJWt-3" vertex="1">
          <mxGeometry x="20" y="480" width="10" height="50" as="geometry" />
        </mxCell>
        <mxCell id="gf4btAmfv63-5Pc0rJWt-7" value="" style="html=1;points=[[0,0,0,0,5],[0,1,0,0,-5],[1,0,0,0,5],[1,1,0,0,-5]];perimeter=orthogonalPerimeter;outlineConnect=0;targetShapes=umlLifeline;portConstraint=eastwest;newEdgeStyle={&quot;curved&quot;:0,&quot;rounded&quot;:0};" parent="gf4btAmfv63-5Pc0rJWt-3" vertex="1">
          <mxGeometry x="20" y="400" width="10" height="50" as="geometry" />
        </mxCell>
        <mxCell id="gf4btAmfv63-5Pc0rJWt-8" value="" style="shape=umlLifeline;perimeter=lifelinePerimeter;whiteSpace=wrap;html=1;container=1;dropTarget=0;collapsible=0;recursiveResize=0;outlineConnect=0;portConstraint=eastwest;newEdgeStyle={&quot;curved&quot;:0,&quot;rounded&quot;:0};participant=umlEntity;" parent="1" vertex="1">
          <mxGeometry x="1440" y="350" width="40" height="570" as="geometry" />
        </mxCell>
        <mxCell id="gf4btAmfv63-5Pc0rJWt-9" value="" style="html=1;points=[[0,0,0,0,5],[0,1,0,0,-5],[1,0,0,0,5],[1,1,0,0,-5]];perimeter=orthogonalPerimeter;outlineConnect=0;targetShapes=umlLifeline;portConstraint=eastwest;newEdgeStyle={&quot;curved&quot;:0,&quot;rounded&quot;:0};" parent="gf4btAmfv63-5Pc0rJWt-8" vertex="1">
          <mxGeometry x="15" y="180" width="10" height="350" as="geometry" />
        </mxCell>
        <mxCell id="gf4btAmfv63-5Pc0rJWt-10" value="" style="shape=umlLifeline;perimeter=lifelinePerimeter;whiteSpace=wrap;html=1;container=1;dropTarget=0;collapsible=0;recursiveResize=0;outlineConnect=0;portConstraint=eastwest;newEdgeStyle={&quot;curved&quot;:0,&quot;rounded&quot;:0};participant=umlControl;" parent="1" vertex="1">
          <mxGeometry x="1110" y="350" width="40" height="580" as="geometry" />
        </mxCell>
        <mxCell id="gf4btAmfv63-5Pc0rJWt-11" value="" style="html=1;points=[[0,0,0,0,5],[0,1,0,0,-5],[1,0,0,0,5],[1,1,0,0,-5]];perimeter=orthogonalPerimeter;outlineConnect=0;targetShapes=umlLifeline;portConstraint=eastwest;newEdgeStyle={&quot;curved&quot;:0,&quot;rounded&quot;:0};" parent="gf4btAmfv63-5Pc0rJWt-10" vertex="1">
          <mxGeometry x="15" y="130" width="10" height="220" as="geometry" />
        </mxCell>
        <mxCell id="gf4btAmfv63-5Pc0rJWt-12" value="" style="html=1;points=[[0,0,0,0,5],[0,1,0,0,-5],[1,0,0,0,5],[1,1,0,0,-5]];perimeter=orthogonalPerimeter;outlineConnect=0;targetShapes=umlLifeline;portConstraint=eastwest;newEdgeStyle={&quot;curved&quot;:0,&quot;rounded&quot;:0};" parent="gf4btAmfv63-5Pc0rJWt-10" vertex="1">
          <mxGeometry x="25" y="300" width="10" height="40" as="geometry" />
        </mxCell>
        <mxCell id="gf4btAmfv63-5Pc0rJWt-13" value="5.2. thông tin cập nhật không hợp lệ" style="html=1;align=left;spacingLeft=2;endArrow=block;rounded=0;edgeStyle=orthogonalEdgeStyle;curved=0;rounded=0;" parent="gf4btAmfv63-5Pc0rJWt-10" target="gf4btAmfv63-5Pc0rJWt-12" edge="1">
          <mxGeometry relative="1" as="geometry">
            <mxPoint x="30" y="280" as="sourcePoint" />
            <Array as="points">
              <mxPoint x="60" y="310" />
            </Array>
          </mxGeometry>
        </mxCell>
        <mxCell id="gf4btAmfv63-5Pc0rJWt-14" value="" style="html=1;points=[[0,0,0,0,5],[0,1,0,0,-5],[1,0,0,0,5],[1,1,0,0,-5]];perimeter=orthogonalPerimeter;outlineConnect=0;targetShapes=umlLifeline;portConstraint=eastwest;newEdgeStyle={&quot;curved&quot;:0,&quot;rounded&quot;:0};" parent="gf4btAmfv63-5Pc0rJWt-10" vertex="1">
          <mxGeometry x="15" y="380" width="10" height="90" as="geometry" />
        </mxCell>
        <mxCell id="gf4btAmfv63-5Pc0rJWt-15" value="Quản trị viên" style="shape=umlActor;verticalLabelPosition=bottom;verticalAlign=top;html=1;" parent="1" vertex="1">
          <mxGeometry x="440" y="330" width="30" height="60" as="geometry" />
        </mxCell>
        <mxCell id="gf4btAmfv63-5Pc0rJWt-16" value="" style="html=1;points=[[0,0,0,0,5],[0,1,0,0,-5],[1,0,0,0,5],[1,1,0,0,-5]];perimeter=orthogonalPerimeter;outlineConnect=0;targetShapes=umlLifeline;portConstraint=eastwest;newEdgeStyle={&quot;curved&quot;:0,&quot;rounded&quot;:0};" parent="1" vertex="1">
          <mxGeometry x="450" y="420" width="10" height="510" as="geometry" />
        </mxCell>
        <mxCell id="gf4btAmfv63-5Pc0rJWt-17" value="Giao diện hệ thống" style="text;html=1;align=center;verticalAlign=middle;resizable=0;points=[];autosize=1;strokeColor=none;fillColor=none;" parent="1" vertex="1">
          <mxGeometry x="800" y="390" width="120" height="30" as="geometry" />
        </mxCell>
        <mxCell id="gf4btAmfv63-5Pc0rJWt-18" value="Cập nhật thông tin thuốc" style="text;html=1;align=center;verticalAlign=middle;resizable=0;points=[];autosize=1;strokeColor=none;fillColor=none;" parent="1" vertex="1">
          <mxGeometry x="1055" y="390" width="150" height="30" as="geometry" />
        </mxCell>
        <mxCell id="gf4btAmfv63-5Pc0rJWt-19" value="Cơ sở dữ liệu" style="text;html=1;align=center;verticalAlign=middle;resizable=0;points=[];autosize=1;strokeColor=none;fillColor=none;" parent="1" vertex="1">
          <mxGeometry x="1410" y="390" width="100" height="30" as="geometry" />
        </mxCell>
        <mxCell id="gf4btAmfv63-5Pc0rJWt-20" value="1.Chọn&amp;nbsp; &quot;Quản lý thuốc&quot; ở trang quản trị" style="html=1;verticalAlign=bottom;startArrow=none;endArrow=block;startSize=8;curved=0;rounded=0;entryX=0;entryY=0;entryDx=0;entryDy=5;startFill=0;" parent="1" source="gf4btAmfv63-5Pc0rJWt-16" target="gf4btAmfv63-5Pc0rJWt-4" edge="1">
          <mxGeometry relative="1" as="geometry">
            <mxPoint x="790" y="445" as="sourcePoint" />
          </mxGeometry>
        </mxCell>
        <mxCell id="gf4btAmfv63-5Pc0rJWt-21" value="4. Gửi yêu cầu cập nhật thuốc" style="html=1;verticalAlign=bottom;startArrow=none;endArrow=block;startSize=8;curved=0;rounded=0;entryX=0;entryY=0;entryDx=0;entryDy=5;startFill=0;" parent="1" edge="1">
          <mxGeometry relative="1" as="geometry">
            <mxPoint x="870" y="590" as="sourcePoint" />
            <mxPoint x="1125" y="590" as="targetPoint" />
          </mxGeometry>
        </mxCell>
        <mxCell id="gf4btAmfv63-5Pc0rJWt-22" value="5.1. Truy vấn để thực hiện cập nhật" style="html=1;verticalAlign=bottom;startArrow=none;endArrow=block;startSize=8;curved=0;rounded=0;startFill=0;" parent="1" target="gf4btAmfv63-5Pc0rJWt-8" edge="1">
          <mxGeometry relative="1" as="geometry">
            <mxPoint x="1140" y="620" as="sourcePoint" />
            <mxPoint x="1395" y="620" as="targetPoint" />
          </mxGeometry>
        </mxCell>
        <mxCell id="gf4btAmfv63-5Pc0rJWt-24" value="9. Gửi thông báo cập nhật thất bại" style="html=1;verticalAlign=bottom;endArrow=open;dashed=1;endSize=8;curved=0;rounded=0;" parent="1" edge="1">
          <mxGeometry relative="1" as="geometry">
            <mxPoint x="1120" y="670" as="sourcePoint" />
            <mxPoint x="870" y="670.33" as="targetPoint" />
          </mxGeometry>
        </mxCell>
        <mxCell id="gf4btAmfv63-5Pc0rJWt-25" value="2. Chuyển đến trang &quot;Quản lý thuốc&quot; và hiển thị danh sách thuốc" style="html=1;verticalAlign=bottom;endArrow=open;dashed=1;endSize=8;curved=0;rounded=0;" parent="1" edge="1">
          <mxGeometry relative="1" as="geometry">
            <mxPoint x="860" y="510" as="sourcePoint" />
            <mxPoint x="460" y="510" as="targetPoint" />
          </mxGeometry>
        </mxCell>
        <mxCell id="gf4btAmfv63-5Pc0rJWt-26" value="3. Thực hiện thêm/sửa/xóa đối với thuốc" style="html=1;verticalAlign=bottom;endArrow=block;curved=0;rounded=0;" parent="1" target="gf4btAmfv63-5Pc0rJWt-3" edge="1">
          <mxGeometry width="80" relative="1" as="geometry">
            <mxPoint x="460" y="560" as="sourcePoint" />
            <mxPoint x="540" y="560" as="targetPoint" />
          </mxGeometry>
        </mxCell>
        <mxCell id="gf4btAmfv63-5Pc0rJWt-29" value="10. Hiển thị thông báo cập nhật thất bại và yêu cầu thực hiện lại" style="html=1;verticalAlign=bottom;endArrow=open;dashed=1;endSize=8;curved=0;rounded=0;" parent="1" source="gf4btAmfv63-5Pc0rJWt-3" edge="1">
          <mxGeometry relative="1" as="geometry">
            <mxPoint x="540" y="680" as="sourcePoint" />
            <mxPoint x="460" y="680" as="targetPoint" />
          </mxGeometry>
        </mxCell>
        <mxCell id="gf4btAmfv63-5Pc0rJWt-30" value="6. Thông báo cập nhật thành công" style="html=1;verticalAlign=bottom;endArrow=open;dashed=1;endSize=8;curved=0;rounded=0;" parent="1" edge="1">
          <mxGeometry relative="1" as="geometry">
            <mxPoint x="1450" y="750" as="sourcePoint" />
            <mxPoint x="1140" y="750" as="targetPoint" />
          </mxGeometry>
        </mxCell>
      </root>
    </mxGraphModel>
  </diagram>
  <diagram id="hmt4b_uHlUZ95GGM1WvG" name="SD011">
    <mxGraphModel dx="1206" dy="661" grid="1" gridSize="10" guides="1" tooltips="1" connect="1" arrows="1" fold="1" page="1" pageScale="1" pageWidth="850" pageHeight="1100" math="0" shadow="0">
      <root>
        <mxCell id="0" />
        <mxCell id="1" parent="0" />
        <mxCell id="IrFe-MnDAm7KhoWXMVMi-3" value="" style="shape=umlLifeline;perimeter=lifelinePerimeter;whiteSpace=wrap;html=1;container=1;dropTarget=0;collapsible=0;recursiveResize=0;outlineConnect=0;portConstraint=eastwest;newEdgeStyle={&quot;curved&quot;:0,&quot;rounded&quot;:0};participant=umlBoundary;" vertex="1" parent="1">
          <mxGeometry x="590" y="160" width="50" height="500" as="geometry" />
        </mxCell>
        <mxCell id="IrFe-MnDAm7KhoWXMVMi-4" value="" style="html=1;points=[[0,0,0,0,5],[0,1,0,0,-5],[1,0,0,0,5],[1,1,0,0,-5]];perimeter=orthogonalPerimeter;outlineConnect=0;targetShapes=umlLifeline;portConstraint=eastwest;newEdgeStyle={&quot;curved&quot;:0,&quot;rounded&quot;:0};" vertex="1" parent="IrFe-MnDAm7KhoWXMVMi-3">
          <mxGeometry x="20" y="90" width="10" height="160" as="geometry" />
        </mxCell>
        <mxCell id="IrFe-MnDAm7KhoWXMVMi-5" value="" style="html=1;points=[[0,0,0,0,5],[0,1,0,0,-5],[1,0,0,0,5],[1,1,0,0,-5]];perimeter=orthogonalPerimeter;outlineConnect=0;targetShapes=umlLifeline;portConstraint=eastwest;newEdgeStyle={&quot;curved&quot;:0,&quot;rounded&quot;:0};" vertex="1" parent="IrFe-MnDAm7KhoWXMVMi-3">
          <mxGeometry x="20" y="290" width="10" height="80" as="geometry" />
        </mxCell>
        <mxCell id="IrFe-MnDAm7KhoWXMVMi-8" value="" style="shape=umlLifeline;perimeter=lifelinePerimeter;whiteSpace=wrap;html=1;container=1;dropTarget=0;collapsible=0;recursiveResize=0;outlineConnect=0;portConstraint=eastwest;newEdgeStyle={&quot;curved&quot;:0,&quot;rounded&quot;:0};participant=umlEntity;" vertex="1" parent="1">
          <mxGeometry x="1220" y="160" width="40" height="480" as="geometry" />
        </mxCell>
        <mxCell id="IrFe-MnDAm7KhoWXMVMi-9" value="" style="html=1;points=[[0,0,0,0,5],[0,1,0,0,-5],[1,0,0,0,5],[1,1,0,0,-5]];perimeter=orthogonalPerimeter;outlineConnect=0;targetShapes=umlLifeline;portConstraint=eastwest;newEdgeStyle={&quot;curved&quot;:0,&quot;rounded&quot;:0};" vertex="1" parent="IrFe-MnDAm7KhoWXMVMi-8">
          <mxGeometry x="15" y="140" width="10" height="290" as="geometry" />
        </mxCell>
        <mxCell id="IrFe-MnDAm7KhoWXMVMi-10" value="" style="shape=umlLifeline;perimeter=lifelinePerimeter;whiteSpace=wrap;html=1;container=1;dropTarget=0;collapsible=0;recursiveResize=0;outlineConnect=0;portConstraint=eastwest;newEdgeStyle={&quot;curved&quot;:0,&quot;rounded&quot;:0};participant=umlControl;" vertex="1" parent="1">
          <mxGeometry x="860" y="160" width="40" height="500" as="geometry" />
        </mxCell>
        <mxCell id="IrFe-MnDAm7KhoWXMVMi-11" value="" style="html=1;points=[[0,0,0,0,5],[0,1,0,0,-5],[1,0,0,0,5],[1,1,0,0,-5]];perimeter=orthogonalPerimeter;outlineConnect=0;targetShapes=umlLifeline;portConstraint=eastwest;newEdgeStyle={&quot;curved&quot;:0,&quot;rounded&quot;:0};" vertex="1" parent="IrFe-MnDAm7KhoWXMVMi-10">
          <mxGeometry x="15" y="130" width="10" height="110" as="geometry" />
        </mxCell>
        <mxCell id="IrFe-MnDAm7KhoWXMVMi-14" value="" style="html=1;points=[[0,0,0,0,5],[0,1,0,0,-5],[1,0,0,0,5],[1,1,0,0,-5]];perimeter=orthogonalPerimeter;outlineConnect=0;targetShapes=umlLifeline;portConstraint=eastwest;newEdgeStyle={&quot;curved&quot;:0,&quot;rounded&quot;:0};" vertex="1" parent="IrFe-MnDAm7KhoWXMVMi-10">
          <mxGeometry x="15" y="270" width="10" height="90" as="geometry" />
        </mxCell>
        <mxCell id="IrFe-MnDAm7KhoWXMVMi-15" value="Quản trị viên" style="shape=umlActor;verticalLabelPosition=bottom;verticalAlign=top;html=1;" vertex="1" parent="1">
          <mxGeometry x="190" y="140" width="30" height="60" as="geometry" />
        </mxCell>
        <mxCell id="IrFe-MnDAm7KhoWXMVMi-16" value="" style="html=1;points=[[0,0,0,0,5],[0,1,0,0,-5],[1,0,0,0,5],[1,1,0,0,-5]];perimeter=orthogonalPerimeter;outlineConnect=0;targetShapes=umlLifeline;portConstraint=eastwest;newEdgeStyle={&quot;curved&quot;:0,&quot;rounded&quot;:0};" vertex="1" parent="1">
          <mxGeometry x="200" y="230" width="10" height="420" as="geometry" />
        </mxCell>
        <mxCell id="IrFe-MnDAm7KhoWXMVMi-17" value="Giao diện hệ thống" style="text;html=1;align=center;verticalAlign=middle;resizable=0;points=[];autosize=1;strokeColor=none;fillColor=none;" vertex="1" parent="1">
          <mxGeometry x="550" y="200" width="120" height="30" as="geometry" />
        </mxCell>
        <mxCell id="IrFe-MnDAm7KhoWXMVMi-18" value="Theo dõi hoạt động" style="text;html=1;align=center;verticalAlign=middle;resizable=0;points=[];autosize=1;strokeColor=none;fillColor=none;" vertex="1" parent="1">
          <mxGeometry x="815" y="200" width="130" height="30" as="geometry" />
        </mxCell>
        <mxCell id="IrFe-MnDAm7KhoWXMVMi-19" value="Cơ sở dữ liệu" style="text;html=1;align=center;verticalAlign=middle;resizable=0;points=[];autosize=1;strokeColor=none;fillColor=none;" vertex="1" parent="1">
          <mxGeometry x="1190" y="200" width="100" height="30" as="geometry" />
        </mxCell>
        <mxCell id="IrFe-MnDAm7KhoWXMVMi-20" value="1.Chọn&amp;nbsp; chức năng &quot;Quản lý &quot; ở trang quản chủ" style="html=1;verticalAlign=bottom;startArrow=none;endArrow=block;startSize=8;curved=0;rounded=0;entryX=0;entryY=0;entryDx=0;entryDy=5;startFill=0;" edge="1" parent="1" source="IrFe-MnDAm7KhoWXMVMi-16" target="IrFe-MnDAm7KhoWXMVMi-4">
          <mxGeometry relative="1" as="geometry">
            <mxPoint x="540" y="255" as="sourcePoint" />
          </mxGeometry>
        </mxCell>
        <mxCell id="IrFe-MnDAm7KhoWXMVMi-21" value="2. Gửi yêu cầu lấy thông tin" style="html=1;verticalAlign=bottom;startArrow=none;endArrow=block;startSize=8;curved=0;rounded=0;entryX=0;entryY=0;entryDx=0;entryDy=5;startFill=0;" edge="1" parent="1">
          <mxGeometry relative="1" as="geometry">
            <mxPoint x="620" y="310" as="sourcePoint" />
            <mxPoint x="875" y="310" as="targetPoint" />
          </mxGeometry>
        </mxCell>
        <mxCell id="IrFe-MnDAm7KhoWXMVMi-22" value="3. Truy vấn lấy các thông tin về số lượng thuốc, các hoạt động,..." style="html=1;verticalAlign=bottom;startArrow=none;endArrow=block;startSize=8;curved=0;rounded=0;startFill=0;" edge="1" parent="1" target="IrFe-MnDAm7KhoWXMVMi-8">
          <mxGeometry relative="1" as="geometry">
            <mxPoint x="880" y="380" as="sourcePoint" />
            <mxPoint x="1199.4999999999995" y="380" as="targetPoint" />
          </mxGeometry>
        </mxCell>
        <mxCell id="IrFe-MnDAm7KhoWXMVMi-23" value="5. Gửi thông tin số liệu lên giao diện hệ thống" style="html=1;verticalAlign=bottom;endArrow=open;dashed=1;endSize=8;curved=0;rounded=0;" edge="1" parent="1">
          <mxGeometry relative="1" as="geometry">
            <mxPoint x="870" y="480" as="sourcePoint" />
            <mxPoint x="620" y="480.33000000000004" as="targetPoint" />
          </mxGeometry>
        </mxCell>
        <mxCell id="IrFe-MnDAm7KhoWXMVMi-26" value="6. Hiển thị các thông tin số liệu trên giao diện" style="html=1;verticalAlign=bottom;endArrow=open;dashed=1;endSize=8;curved=0;rounded=0;" edge="1" parent="1" source="IrFe-MnDAm7KhoWXMVMi-3">
          <mxGeometry relative="1" as="geometry">
            <mxPoint x="290" y="490" as="sourcePoint" />
            <mxPoint x="210" y="490" as="targetPoint" />
          </mxGeometry>
        </mxCell>
        <mxCell id="IrFe-MnDAm7KhoWXMVMi-27" value="4. Trả về các thông tin số liệu" style="html=1;verticalAlign=bottom;endArrow=open;dashed=1;endSize=8;curved=0;rounded=0;" edge="1" parent="1">
          <mxGeometry relative="1" as="geometry">
            <mxPoint x="1239.4999999999995" y="470" as="sourcePoint" />
            <mxPoint x="880" y="470" as="targetPoint" />
          </mxGeometry>
        </mxCell>
      </root>
    </mxGraphModel>
  </diagram>
  <diagram id="ww1JfZ5f6dlskdHqNQTe" name="SD012">
    <mxGraphModel dx="1025" dy="562" grid="1" gridSize="10" guides="1" tooltips="1" connect="1" arrows="1" fold="1" page="1" pageScale="1" pageWidth="850" pageHeight="1100" math="0" shadow="0">
      <root>
        <mxCell id="0" />
        <mxCell id="1" parent="0" />
        <mxCell id="ZuE-zp8LPxO4lXXV-YMe-1" value="" style="shape=umlLifeline;perimeter=lifelinePerimeter;whiteSpace=wrap;html=1;container=1;dropTarget=0;collapsible=0;recursiveResize=0;outlineConnect=0;portConstraint=eastwest;newEdgeStyle={&quot;curved&quot;:0,&quot;rounded&quot;:0};participant=umlBoundary;" vertex="1" parent="1">
          <mxGeometry x="600" y="260" width="50" height="530" as="geometry" />
        </mxCell>
        <mxCell id="ZuE-zp8LPxO4lXXV-YMe-2" value="" style="html=1;points=[[0,0,0,0,5],[0,1,0,0,-5],[1,0,0,0,5],[1,1,0,0,-5]];perimeter=orthogonalPerimeter;outlineConnect=0;targetShapes=umlLifeline;portConstraint=eastwest;newEdgeStyle={&quot;curved&quot;:0,&quot;rounded&quot;:0};" vertex="1" parent="ZuE-zp8LPxO4lXXV-YMe-1">
          <mxGeometry x="20" y="90" width="10" height="160" as="geometry" />
        </mxCell>
        <mxCell id="ZuE-zp8LPxO4lXXV-YMe-3" value="" style="html=1;points=[[0,0,0,0,5],[0,1,0,0,-5],[1,0,0,0,5],[1,1,0,0,-5]];perimeter=orthogonalPerimeter;outlineConnect=0;targetShapes=umlLifeline;portConstraint=eastwest;newEdgeStyle={&quot;curved&quot;:0,&quot;rounded&quot;:0};" vertex="1" parent="ZuE-zp8LPxO4lXXV-YMe-1">
          <mxGeometry x="20" y="290" width="10" height="80" as="geometry" />
        </mxCell>
        <mxCell id="ZuE-zp8LPxO4lXXV-YMe-4" value="" style="shape=umlLifeline;perimeter=lifelinePerimeter;whiteSpace=wrap;html=1;container=1;dropTarget=0;collapsible=0;recursiveResize=0;outlineConnect=0;portConstraint=eastwest;newEdgeStyle={&quot;curved&quot;:0,&quot;rounded&quot;:0};participant=umlEntity;" vertex="1" parent="1">
          <mxGeometry x="1230" y="260" width="40" height="540" as="geometry" />
        </mxCell>
        <mxCell id="ZuE-zp8LPxO4lXXV-YMe-5" value="" style="html=1;points=[[0,0,0,0,5],[0,1,0,0,-5],[1,0,0,0,5],[1,1,0,0,-5]];perimeter=orthogonalPerimeter;outlineConnect=0;targetShapes=umlLifeline;portConstraint=eastwest;newEdgeStyle={&quot;curved&quot;:0,&quot;rounded&quot;:0};" vertex="1" parent="ZuE-zp8LPxO4lXXV-YMe-4">
          <mxGeometry x="15" y="140" width="10" height="290" as="geometry" />
        </mxCell>
        <mxCell id="ZuE-zp8LPxO4lXXV-YMe-6" value="" style="shape=umlLifeline;perimeter=lifelinePerimeter;whiteSpace=wrap;html=1;container=1;dropTarget=0;collapsible=0;recursiveResize=0;outlineConnect=0;portConstraint=eastwest;newEdgeStyle={&quot;curved&quot;:0,&quot;rounded&quot;:0};participant=umlControl;" vertex="1" parent="1">
          <mxGeometry x="870" y="260" width="40" height="530" as="geometry" />
        </mxCell>
        <mxCell id="ZuE-zp8LPxO4lXXV-YMe-7" value="" style="html=1;points=[[0,0,0,0,5],[0,1,0,0,-5],[1,0,0,0,5],[1,1,0,0,-5]];perimeter=orthogonalPerimeter;outlineConnect=0;targetShapes=umlLifeline;portConstraint=eastwest;newEdgeStyle={&quot;curved&quot;:0,&quot;rounded&quot;:0};" vertex="1" parent="ZuE-zp8LPxO4lXXV-YMe-6">
          <mxGeometry x="15" y="130" width="10" height="110" as="geometry" />
        </mxCell>
        <mxCell id="ZuE-zp8LPxO4lXXV-YMe-8" value="" style="html=1;points=[[0,0,0,0,5],[0,1,0,0,-5],[1,0,0,0,5],[1,1,0,0,-5]];perimeter=orthogonalPerimeter;outlineConnect=0;targetShapes=umlLifeline;portConstraint=eastwest;newEdgeStyle={&quot;curved&quot;:0,&quot;rounded&quot;:0};" vertex="1" parent="ZuE-zp8LPxO4lXXV-YMe-6">
          <mxGeometry x="15" y="270" width="10" height="90" as="geometry" />
        </mxCell>
        <mxCell id="ZuE-zp8LPxO4lXXV-YMe-9" value="Quản trị viên" style="shape=umlActor;verticalLabelPosition=bottom;verticalAlign=top;html=1;" vertex="1" parent="1">
          <mxGeometry x="200" y="240" width="30" height="60" as="geometry" />
        </mxCell>
        <mxCell id="ZuE-zp8LPxO4lXXV-YMe-10" value="" style="html=1;points=[[0,0,0,0,5],[0,1,0,0,-5],[1,0,0,0,5],[1,1,0,0,-5]];perimeter=orthogonalPerimeter;outlineConnect=0;targetShapes=umlLifeline;portConstraint=eastwest;newEdgeStyle={&quot;curved&quot;:0,&quot;rounded&quot;:0};" vertex="1" parent="1">
          <mxGeometry x="210" y="330" width="10" height="420" as="geometry" />
        </mxCell>
        <mxCell id="ZuE-zp8LPxO4lXXV-YMe-11" value="Giao diện hệ thống" style="text;html=1;align=center;verticalAlign=middle;resizable=0;points=[];autosize=1;strokeColor=none;fillColor=none;" vertex="1" parent="1">
          <mxGeometry x="560" y="300" width="120" height="30" as="geometry" />
        </mxCell>
        <mxCell id="ZuE-zp8LPxO4lXXV-YMe-12" value="Thống kê số liệu" style="text;html=1;align=center;verticalAlign=middle;resizable=0;points=[];autosize=1;strokeColor=none;fillColor=none;" vertex="1" parent="1">
          <mxGeometry x="835" y="300" width="110" height="30" as="geometry" />
        </mxCell>
        <mxCell id="ZuE-zp8LPxO4lXXV-YMe-13" value="1.Chọn&amp;nbsp; chức năng &quot;Xem thống kê &quot; ở trang quản chủ" style="html=1;verticalAlign=bottom;startArrow=none;endArrow=block;startSize=8;curved=0;rounded=0;entryX=0;entryY=0;entryDx=0;entryDy=5;startFill=0;" edge="1" parent="1" source="ZuE-zp8LPxO4lXXV-YMe-10" target="ZuE-zp8LPxO4lXXV-YMe-2">
          <mxGeometry relative="1" as="geometry">
            <mxPoint x="550" y="355" as="sourcePoint" />
          </mxGeometry>
        </mxCell>
        <mxCell id="ZuE-zp8LPxO4lXXV-YMe-14" value="2. Gửi yêu cầu xem thống kê" style="html=1;verticalAlign=bottom;startArrow=none;endArrow=block;startSize=8;curved=0;rounded=0;entryX=0;entryY=0;entryDx=0;entryDy=5;startFill=0;" edge="1" parent="1">
          <mxGeometry relative="1" as="geometry">
            <mxPoint x="630" y="410" as="sourcePoint" />
            <mxPoint x="885" y="410" as="targetPoint" />
          </mxGeometry>
        </mxCell>
        <mxCell id="ZuE-zp8LPxO4lXXV-YMe-15" value="3. Truy vấn lấy các thông tin các số liệu thống kê" style="html=1;verticalAlign=bottom;startArrow=none;endArrow=block;startSize=8;curved=0;rounded=0;startFill=0;" edge="1" parent="1">
          <mxGeometry relative="1" as="geometry">
            <mxPoint x="890" y="460" as="sourcePoint" />
            <mxPoint x="1240" y="460" as="targetPoint" />
          </mxGeometry>
        </mxCell>
        <mxCell id="ZuE-zp8LPxO4lXXV-YMe-16" value="5. Gửi thông tin số liệu lên giao diện hệ thống" style="html=1;verticalAlign=bottom;endArrow=open;dashed=1;endSize=8;curved=0;rounded=0;" edge="1" parent="1">
          <mxGeometry relative="1" as="geometry">
            <mxPoint x="880" y="580" as="sourcePoint" />
            <mxPoint x="630" y="580.33" as="targetPoint" />
          </mxGeometry>
        </mxCell>
        <mxCell id="ZuE-zp8LPxO4lXXV-YMe-17" value="6. Hiển thị các biểu đồ thống kê trên giao diện hệ thống" style="html=1;verticalAlign=bottom;endArrow=open;dashed=1;endSize=8;curved=0;rounded=0;" edge="1" parent="1" source="ZuE-zp8LPxO4lXXV-YMe-1">
          <mxGeometry relative="1" as="geometry">
            <mxPoint x="300" y="590" as="sourcePoint" />
            <mxPoint x="220" y="590" as="targetPoint" />
          </mxGeometry>
        </mxCell>
        <mxCell id="ZuE-zp8LPxO4lXXV-YMe-18" value="4. Trả về các thông tin số liệu" style="html=1;verticalAlign=bottom;endArrow=open;dashed=1;endSize=8;curved=0;rounded=0;" edge="1" parent="1">
          <mxGeometry relative="1" as="geometry">
            <mxPoint x="1249.4999999999995" y="570" as="sourcePoint" />
            <mxPoint x="890" y="570" as="targetPoint" />
          </mxGeometry>
        </mxCell>
      </root>
    </mxGraphModel>
  </diagram>
</mxfile>
